<svg width="128" height="55" viewBox="0 0 128 55" fill="none" xmlns="http://www.w3.org/2000/svg">
<g clip-path="url(#clip0_170_1381)">
<g filter="url(#filter0_di_170_1381)">
<path d="M24.8101 0.674805V54.325L28.1632 50.9718V18.2788L29.4206 17.0213L40.7375 31.6913H45.9767L32.3546 14.0873L45.5576 0.674805H40.7375L28.1632 13.6682V0.674805H24.8101Z" fill="#FF6300"/>
</g>
<g filter="url(#filter1_d_170_1381)">
<path d="M0.5 31.6913H4.27228V9.05764L11.8168 20.584L19.7805 9.05764V50.9718L23.1337 54.325V0.674805H20.1997L11.8168 14.9256L3.85314 0.674805H0.5V31.6913Z" fill="white"/>
</g>
<g filter="url(#filter2_di_170_1381)">
<path d="M72.537 27.0938H65.8737V17.5086C65.8737 16.7722 65.7965 16.2615 65.6421 15.9764C65.4877 15.6914 65.2086 15.5488 64.8047 15.5488C64.0564 15.5488 63.6823 16.208 63.6823 17.5264V27.0938H57.019V17.5086C57.019 16.7722 56.9359 16.2615 56.7696 15.9764C56.6152 15.6914 56.3361 15.5488 55.9322 15.5488C55.1958 15.5488 54.8276 16.208 54.8276 17.5264V27.0938H48.1643V16.1546C48.1643 14.1592 48.8354 12.4666 50.1776 11.0769C51.5197 9.6754 53.147 8.97462 55.0592 8.97462C57.0309 8.97462 58.8006 9.80605 60.3685 11.4689C62.1145 9.80605 63.8605 8.97462 65.6065 8.97462C67.8275 8.97462 69.6092 9.78229 70.9513 11.3976C72.0084 12.6566 72.537 14.4917 72.537 16.9029V27.0938ZM84.8836 8.95681C87.4017 8.95681 89.5574 9.86544 91.3509 11.6827C93.1563 13.4881 94.059 15.6557 94.059 18.1856C94.059 20.7512 93.1444 22.9366 91.3153 24.742C89.498 26.5474 87.3007 27.4501 84.7233 27.4501C82.1459 27.4501 79.9426 26.5474 78.1135 24.742C76.2843 22.9247 75.3698 20.7393 75.3698 18.1856C75.3698 15.5845 76.2843 13.399 78.1135 11.6292C79.9426 9.84762 82.1993 8.95681 84.8836 8.95681ZM84.7055 15.531C83.9928 15.531 83.3871 15.7923 82.8882 16.3149C82.3894 16.8257 82.1399 17.4552 82.1399 18.2034C82.1399 18.9398 82.3894 19.5694 82.8882 20.092C83.3989 20.6146 84.0047 20.8759 84.7055 20.8759C85.4181 20.8759 86.0239 20.6146 86.5227 20.092C87.0335 19.5694 87.2888 18.9398 87.2888 18.2034C87.2888 17.4552 87.0394 16.8257 86.5405 16.3149C86.0417 15.7923 85.43 15.531 84.7055 15.531ZM102.771 2.77457V9.58038H105.764V16.6178H102.771C102.771 18.0312 102.991 19.0052 103.43 19.5397C103.882 20.0741 104.701 20.3414 105.889 20.3414V27.3432C105.545 27.3551 105.289 27.361 105.123 27.361C103.614 27.361 102.189 27.0106 100.847 26.3098C99.5167 25.6091 98.4477 24.6589 97.6401 23.4592C96.6186 21.927 96.1079 19.896 96.1079 17.3661V2.77457H102.771ZM117.487 8.95681C120.005 8.95681 122.161 9.86544 123.955 11.6827C125.76 13.4881 126.663 15.6557 126.663 18.1856C126.663 20.7512 125.748 22.9366 123.919 24.742C122.102 26.5474 119.904 27.4501 117.327 27.4501C114.75 27.4501 112.546 26.5474 110.717 24.742C108.888 22.9247 107.973 20.7393 107.973 18.1856C107.973 15.5845 108.888 13.399 110.717 11.6292C112.546 9.84762 114.803 8.95681 117.487 8.95681ZM117.309 15.531C116.597 15.531 115.991 15.7923 115.492 16.3149C114.993 16.8257 114.744 17.4552 114.744 18.2034C114.744 18.9398 114.993 19.5694 115.492 20.092C116.003 20.6146 116.608 20.8759 117.309 20.8759C118.022 20.8759 118.628 20.6146 119.126 20.092C119.637 19.5694 119.893 18.9398 119.893 18.2034C119.893 17.4552 119.643 16.8257 119.144 16.3149C118.645 15.7923 118.034 15.531 117.309 15.531Z" fill="white"/>
<path d="M74.9244 29.7746V44.3304C74.9244 46.6941 75.7736 47.8759 77.4721 47.8759C78.1966 47.8759 78.8083 47.6324 79.3071 47.1454C79.8179 46.6466 80.0732 46.0467 80.0732 45.346C80.0732 44.6214 79.8357 44.0157 79.3606 43.5287C78.8855 43.0299 78.3035 42.7804 77.6146 42.7804C77.1276 42.7804 76.5694 42.9942 75.9399 43.4218V36.0815C76.7238 36.0103 77.3177 35.9746 77.7215 35.9746C80.2277 35.9746 82.3715 36.8773 84.1532 38.6827C85.9467 40.4881 86.8434 42.6617 86.8434 45.2034C86.8434 47.8046 85.9348 49.996 84.1175 51.7776C82.3003 53.5593 80.0673 54.4501 77.4186 54.4501C76.0883 54.4501 74.7878 54.1591 73.5169 53.5771C72.2579 52.9951 71.2186 52.2112 70.399 51.2253C68.9737 49.515 68.2611 47.2998 68.2611 44.5799V29.7746H74.9244ZM98.2102 35.9568C100.728 35.9568 102.884 36.8654 104.677 38.6827C106.483 40.4881 107.386 42.6557 107.386 45.1856C107.386 47.7512 106.471 49.9366 104.642 51.742C102.825 53.5474 100.627 54.4501 98.0498 54.4501C95.4724 54.4501 93.2692 53.5474 91.44 51.742C89.6109 49.9247 88.6963 47.7393 88.6963 45.1856C88.6963 42.5845 89.6109 40.399 91.44 38.6292C93.2692 36.8476 95.5259 35.9568 98.2102 35.9568ZM98.032 42.531C97.3194 42.531 96.7136 42.7923 96.2148 43.3149C95.7159 43.8257 95.4665 44.4552 95.4665 45.2034C95.4665 45.9398 95.7159 46.5694 96.2148 47.092C96.7255 47.6146 97.3313 47.8759 98.032 47.8759C98.7447 47.8759 99.3504 47.6146 99.8493 47.092C100.36 46.5694 100.615 45.9398 100.615 45.2034C100.615 44.4552 100.366 43.8257 99.8671 43.3149C99.3682 42.7923 98.7566 42.531 98.032 42.531ZM119.126 36.3309H125.79V40.2327C125.79 41.3492 125.623 42.2519 125.291 42.9408C124.97 43.6178 124.412 44.2176 123.616 44.7402C124.424 45.2866 124.988 45.8864 125.309 46.5397C125.629 47.1929 125.79 48.0481 125.79 49.1052V54.0938H119.126V48.7311C119.126 47.5077 118.699 46.896 117.844 46.896C117.012 46.896 116.597 47.4245 116.597 48.4816V54.0938H109.933V49.3546C109.933 48.2619 110.129 47.3711 110.521 46.6822C110.925 45.9933 111.62 45.346 112.606 44.7402C111.62 44.0988 110.925 43.4218 110.521 42.7092C110.129 41.9965 109.933 41.0879 109.933 39.9833V36.3309H116.597V40.8206C116.597 41.2839 116.715 41.6639 116.953 41.9609C117.19 42.2578 117.493 42.4063 117.862 42.4063C118.705 42.4063 119.126 41.8777 119.126 40.8206V36.3309Z" fill="#FF6300"/>
</g>
</g>
<defs>
<filter id="filter0_di_170_1381" x="23.1335" y="0.674805" width="24.5196" height="57.0035" filterUnits="userSpaceOnUse" color-interpolation-filters="sRGB">
<feFlood flood-opacity="0" result="BackgroundImageFix"/>
<feColorMatrix in="SourceAlpha" type="matrix" values="0 0 0 0 0 0 0 0 0 0 0 0 0 0 0 0 0 0 127 0" result="hardAlpha"/>
<feOffset dy="1.67657"/>
<feGaussianBlur stdDeviation="0.838284"/>
<feComposite in2="hardAlpha" operator="out"/>
<feColorMatrix type="matrix" values="0 0 0 0 0 0 0 0 0 0 0 0 0 0 0 0 0 0 0.25 0"/>
<feBlend mode="normal" in2="BackgroundImageFix" result="effect1_dropShadow_170_1381"/>
<feBlend mode="normal" in="SourceGraphic" in2="effect1_dropShadow_170_1381" result="shape"/>
<feColorMatrix in="SourceAlpha" type="matrix" values="0 0 0 0 0 0 0 0 0 0 0 0 0 0 0 0 0 0 127 0" result="hardAlpha"/>
<feOffset dy="1.67657"/>
<feGaussianBlur stdDeviation="0.838284"/>
<feComposite in2="hardAlpha" operator="arithmetic" k2="-1" k3="1"/>
<feColorMatrix type="matrix" values="0 0 0 0 0 0 0 0 0 0 0 0 0 0 0 0 0 0 0.25 0"/>
<feBlend mode="normal" in2="shape" result="effect2_innerShadow_170_1381"/>
</filter>
<filter id="filter1_d_170_1381" x="-1.17657" y="0.674805" width="25.9869" height="57.0035" filterUnits="userSpaceOnUse" color-interpolation-filters="sRGB">
<feFlood flood-opacity="0" result="BackgroundImageFix"/>
<feColorMatrix in="SourceAlpha" type="matrix" values="0 0 0 0 0 0 0 0 0 0 0 0 0 0 0 0 0 0 127 0" result="hardAlpha"/>
<feOffset dy="1.67657"/>
<feGaussianBlur stdDeviation="0.838284"/>
<feComposite in2="hardAlpha" operator="out"/>
<feColorMatrix type="matrix" values="0 0 0 0 0 0 0 0 0 0 0 0 0 0 0 0 0 0 0.25 0"/>
<feBlend mode="normal" in2="BackgroundImageFix" result="effect1_dropShadow_170_1381"/>
<feBlend mode="normal" in="SourceGraphic" in2="effect1_dropShadow_170_1381" result="shape"/>
</filter>
<filter id="filter2_di_170_1381" x="46.488" y="2.77441" width="81.8512" height="55.0289" filterUnits="userSpaceOnUse" color-interpolation-filters="sRGB">
<feFlood flood-opacity="0" result="BackgroundImageFix"/>
<feColorMatrix in="SourceAlpha" type="matrix" values="0 0 0 0 0 0 0 0 0 0 0 0 0 0 0 0 0 0 127 0" result="hardAlpha"/>
<feOffset dy="1.67657"/>
<feGaussianBlur stdDeviation="0.838284"/>
<feComposite in2="hardAlpha" operator="out"/>
<feColorMatrix type="matrix" values="0 0 0 0 0 0 0 0 0 0 0 0 0 0 0 0 0 0 0.25 0"/>
<feBlend mode="normal" in2="BackgroundImageFix" result="effect1_dropShadow_170_1381"/>
<feBlend mode="normal" in="SourceGraphic" in2="effect1_dropShadow_170_1381" result="shape"/>
<feColorMatrix in="SourceAlpha" type="matrix" values="0 0 0 0 0 0 0 0 0 0 0 0 0 0 0 0 0 0 127 0" result="hardAlpha"/>
<feOffset dy="1.67657"/>
<feGaussianBlur stdDeviation="0.838284"/>
<feComposite in2="hardAlpha" operator="arithmetic" k2="-1" k3="1"/>
<feColorMatrix type="matrix" values="0 0 0 0 0 0 0 0 0 0 0 0 0 0 0 0 0 0 0.25 0"/>
<feBlend mode="normal" in2="shape" result="effect2_innerShadow_170_1381"/>
</filter>
<clipPath id="clip0_170_1381">
<rect width="127" height="53.6502" fill="white" transform="translate(0.5 0.674805)"/>
</clipPath>
</defs>
</svg>
