<svg width="117" height="89" viewBox="0 0 117 89" fill="none" xmlns="http://www.w3.org/2000/svg">
<path d="M45.6691 11.3473C50.3687 9.53319 54.7929 7.04288 58.8645 4.08325C61.9029 6.43835 65.2685 8.35047 68.7859 9.89215C72.6367 11.5759 76.6699 12.8161 80.7662 13.7425C85.0311 14.6837 89.3647 15.3187 93.7203 15.6267C93.7555 18.996 93.7256 22.367 93.7351 25.737C93.0231 25.7806 92.2967 25.8953 91.6696 26.2553C90.4971 26.9157 89.5353 27.9979 89.1204 29.288C89.0394 29.5153 89.018 29.756 88.9969 29.9948C96.3343 30.021 103.672 29.999 111.01 30.0058C111.022 39.5487 111.01 49.0917 111.016 58.6347C104.217 58.6322 97.4172 58.627 90.6179 58.6373C90.8028 59.7702 91.6557 60.6687 92.6156 61.2324C93.9852 62.0143 95.5858 62.3492 97.1547 62.3106C93.8326 65.2861 90.405 68.1441 86.8893 70.8885C83.3302 73.6513 79.6663 76.2858 75.8345 78.6586C73.5525 80.0618 71.2132 81.379 68.7814 82.5058C66.5277 83.54 64.1956 84.4407 61.7639 84.9542C60.6005 85.1802 59.416 85.3842 58.2267 85.282C56.9747 85.1645 55.7367 84.9131 54.5281 84.5688C51.0204 83.5545 47.7211 81.9415 44.5396 80.1721C38.3276 76.6647 32.5541 72.4378 26.996 67.9804C24.7739 66.1701 22.5614 64.3441 20.4272 62.431C21.8571 62.4643 23.329 62.2917 24.6178 61.6328C25.8211 61.0518 26.804 59.9552 27.1097 58.6385C20.117 58.6227 13.1243 58.6513 6.13151 58.6419C6.13142 49.0962 6.12215 39.5504 6.13614 30.0048C13.4452 30.0055 20.7544 30.01 28.0635 30.0026C28.0103 28.9469 27.4932 27.9454 26.7365 27.2195C25.9601 26.4026 24.8897 25.8946 23.7727 25.7695C23.7694 22.3897 23.7645 19.0097 23.7753 15.63C25.4705 15.6143 27.1584 15.4286 28.8448 15.2775C34.5861 14.6868 40.286 13.4544 45.6691 11.3473Z" fill="black"/>
<path d="M57.3432 8.34732C57.8709 8.01778 58.3471 7.6157 58.8642 7.27075C59.5433 7.77181 60.1979 8.30747 60.9094 8.7637C64.3537 10.9877 68.1565 12.59 72.027 13.9087C78.22 15.9636 84.6557 17.3021 91.1594 17.8359C91.1941 18.0697 91.2282 18.3046 91.2277 18.542C91.2233 19.9262 91.2254 21.3105 91.2254 22.6948C91.2205 23.1884 91.2616 23.6876 91.1601 24.1749C89.5393 24.6382 88.2627 25.8634 87.3528 27.2397C86.8316 28.0879 86.3625 29.0362 86.3889 30.0563C85.7162 30.0642 85.0438 30.0583 84.3717 30.0638C84.3508 28.4515 84.8804 26.8372 85.8302 25.5358C86.7084 24.3574 87.9358 23.5126 89.2016 22.7975C89.2041 21.7838 89.2071 20.7702 89.2039 19.7566C88.357 19.6627 87.5041 19.6701 86.6582 19.5711C82.3612 19.2159 78.1361 18.2489 74.0312 16.9499C68.8228 15.2588 63.7638 13.0207 59.1726 10.0189C59.0213 9.91527 58.8179 9.81296 58.6519 9.94927C54.8861 12.4166 50.7641 14.2929 46.5555 15.8672C41.4413 17.7338 36.1201 19.1252 30.6845 19.5932C29.9493 19.7001 29.2012 19.6193 28.468 19.7488C28.3745 20.5343 28.4492 21.328 28.4217 22.1171C28.44 22.4084 28.3337 22.8216 28.6699 22.9707C31.2193 24.3435 32.9085 27.1583 32.9668 30.0456C32.3349 30.0687 31.7018 30.0689 31.07 30.0544C30.9304 30.0643 30.8296 29.9432 30.8318 29.8114C30.6566 28.744 30.2861 27.6989 29.668 26.8058C28.8932 25.6052 27.7082 24.7497 26.4983 24.0295C26.4227 23.6223 26.4768 23.2037 26.4631 22.792C26.4772 21.1691 26.434 19.5445 26.4832 17.9227C27.1448 17.9454 27.8012 17.8547 28.4598 17.8101C31.2352 17.5228 34.0056 17.1346 36.727 16.5084C42.3624 15.2857 47.8747 13.4379 53.0424 10.8697C54.5051 10.0807 55.9803 9.30337 57.3432 8.34732Z" fill="#FD6300"/>
<path d="M108.435 32.6802C99.9546 32.6987 91.4737 32.6821 82.9933 32.6874C58.2688 32.6862 33.545 32.6893 8.82048 32.685C8.67866 33.8858 8.77268 35.0983 8.74568 36.3044C8.74634 42.6113 8.74351 48.9171 8.74568 55.224C8.77902 55.448 8.70073 55.9113 9.05936 55.8489C42.1841 55.8453 75.3102 55.8502 108.435 55.8465C108.463 53.2252 108.439 50.6042 108.447 47.9828C108.438 42.8817 108.466 37.7811 108.435 32.6802ZM105.269 34.6322C105.681 34.629 106.092 34.6342 106.502 34.6781C106.5 41.124 106.505 47.5691 106.5 54.0151C74.6772 54.0193 42.8533 54.015 11.0307 54.0199C10.9363 53.1043 10.9772 52.1828 10.9704 51.2644C10.9692 45.955 10.9722 40.6461 10.968 35.3368C10.9698 35.1164 10.9984 34.8984 11.0235 34.6805C11.2037 34.659 11.3846 34.6393 11.5664 34.637C42.3885 34.6375 73.2117 34.6371 104.034 34.637C104.445 34.6471 104.857 34.6355 105.269 34.6322Z" fill="#FD6300"/>
<path d="M85.5694 58.574C86.2076 58.5727 86.846 58.5778 87.4846 58.5686C87.6171 59.1629 87.7298 59.7733 88.025 60.3142C88.7903 61.7562 90.0521 62.8951 91.4777 63.667C90.7892 64.3168 90.0185 64.8705 89.2959 65.4804C85.5689 68.5063 81.7812 71.4647 77.8195 74.1791C73.8102 76.9149 69.5925 79.4276 64.9994 81.0514C63.2085 81.6888 61.3556 82.1391 59.4819 82.4526C59.0151 82.5352 58.5357 82.5079 58.0736 82.4127C54.525 81.8163 51.0915 80.6282 47.8687 79.0386C44.1668 77.2221 40.6884 74.9856 37.34 72.5873C34.2377 70.3438 31.2226 67.9812 28.2748 65.5389C27.6035 64.9318 26.827 64.4386 26.2197 63.7642C26.7989 63.4327 27.3943 63.117 27.8928 62.6664C29.1131 61.6909 30.0036 60.2257 30.0624 58.6397C30.8014 58.5875 31.5482 58.5131 32.285 58.6355C32.2825 60.2026 31.7529 61.7868 30.7284 62.9834C30.4184 63.348 30.0622 63.6693 29.7284 64.0117C35.383 69.0087 41.6107 73.3744 48.3126 76.852C49.8679 77.6151 51.4283 78.3743 53.047 78.9964C54.7606 79.6563 56.5189 80.2398 58.3452 80.4872C59.1475 80.654 59.956 80.4391 60.7445 80.2967C63.8545 79.6006 66.7521 78.2134 69.5625 76.7463C74.4532 74.1317 79.0465 70.9966 83.4694 67.6607C84.9642 66.4879 86.4547 65.3084 87.9073 64.0836C88.1178 63.9151 87.8382 63.7424 87.7291 63.6129C86.7362 62.71 85.9412 61.5267 85.7019 60.1892C85.6022 59.6565 85.5374 59.1163 85.5694 58.574Z" fill="#FD6300"/>
<path d="M54.1866 15.2134C55.7523 14.3755 57.3553 13.6032 58.868 12.6689C60.3738 13.593 61.9616 14.3771 63.5464 15.1548C63.5645 16.0609 63.5649 16.9676 63.5337 17.8734C62.3951 17.3868 61.3209 16.7572 60.1748 16.289C60.1498 20.8635 60.1701 25.4389 60.1652 30.0137C59.7026 30.086 59.2335 30.0586 58.7678 30.0618C58.3346 30.0599 57.8984 30.0847 57.4698 30.0108C57.4658 25.4327 57.4904 20.854 57.4576 16.2763C56.3361 16.7443 55.281 17.3562 54.1734 17.8551C54.1775 16.9745 54.1925 16.094 54.1866 15.2134ZM52.398 16.3517C52.2177 16.3547 52.0371 16.3728 51.8599 16.4C50.625 16.7154 49.473 17.2814 48.3395 17.8526C47.5667 18.2324 46.6745 18.5118 46.1365 19.2279C45.7745 19.7966 45.771 20.4997 45.7673 21.151C45.7672 23.1458 45.7686 25.1426 45.7673 27.1374C45.7685 27.6964 45.7997 28.2619 45.9531 28.8024C46.1092 29.3107 46.5005 29.7683 47.0341 29.8906C47.9041 30.1036 48.8068 30.0596 49.6955 30.0619C50.2744 30.057 50.8557 30.0769 51.4328 30.0161C52.0674 29.9736 52.75 30.0255 53.3246 29.7024C53.8347 29.3959 53.954 28.7471 53.9736 28.1991C53.978 25.2705 53.9737 22.3424 53.976 19.4137C53.9828 18.8032 53.9239 18.1924 53.8168 17.592C53.7179 17.0978 53.4564 16.5452 52.9361 16.3904C52.7586 16.3603 52.5783 16.3488 52.398 16.3517ZM51.0226 19.532C51.2331 19.5293 51.4288 19.5827 51.5511 19.7708C51.6407 20.0938 51.6586 20.4334 51.6548 20.7674C51.6493 22.8281 51.6586 24.8886 51.65 26.9492C51.6118 27.1872 51.6414 27.5387 51.3701 27.6442C50.3861 27.8077 49.3891 27.7124 48.4022 27.649C48.0846 27.478 47.9889 27.0887 48.0017 26.7538C47.9922 25.6589 47.9572 24.5622 47.992 23.4674C47.9962 22.6548 48.0311 21.8362 48.2164 21.0424C48.2913 20.7028 48.5719 20.4691 48.8655 20.3137C49.361 20.0516 49.8673 19.8004 50.4049 19.6357C50.5857 19.5951 50.8122 19.5346 51.0226 19.532ZM65.2805 16.3783C65.1844 16.3775 65.0869 16.3845 64.991 16.4024C64.4738 16.4902 64.0441 16.9023 63.9124 17.4062C63.8066 17.8081 63.7461 18.2253 63.7507 18.6416C63.7574 21.634 63.7494 24.6252 63.758 27.6176C63.8046 28.2781 63.8231 29.0612 64.3902 29.5118C65.0985 30.0493 66.0394 29.9607 66.8755 30.0522C68.1935 30.0594 69.5181 30.1114 70.8278 29.9316C71.2509 29.8606 71.6972 29.6774 71.9257 29.2922C72.1791 28.8467 72.2245 28.3181 72.2273 27.8155C72.2256 25.3035 72.2271 22.7918 72.2297 20.28C72.234 19.7362 72.0158 19.192 71.6048 18.8298C70.9341 18.2288 70.0435 17.9842 69.2208 17.6692C68.1849 17.3037 67.2006 16.796 66.1347 16.5182C65.8545 16.4552 65.5687 16.3808 65.2805 16.3783ZM66.972 19.6285C67.2295 19.6312 67.4985 19.7093 67.7393 19.7684C68.2841 19.9401 68.8779 19.9919 69.3752 20.292C69.7161 20.5157 69.8636 20.9447 69.8409 21.3392C69.835 23.2048 69.8482 25.0717 69.8337 26.9372C69.8575 27.3755 69.4123 27.6923 69.0036 27.6755C68.3592 27.6827 67.7112 27.6976 67.0685 27.6562C66.5006 27.5102 66.2429 26.8934 66.2481 26.3533C66.226 24.4566 66.2424 22.5604 66.236 20.6636C66.2323 20.3353 66.2491 19.9495 66.5304 19.7274C66.6682 19.6532 66.8175 19.6268 66.972 19.6285ZM41.6683 19.9761C42.482 19.7324 43.3154 19.5482 44.1552 19.4216C44.161 22.9608 44.1653 26.5003 44.153 30.0395C43.3702 30.0782 42.5853 30.0679 41.8023 30.0457C41.6446 28.7566 41.9377 27.4143 41.5417 26.1578C40.8757 27.3047 40.4265 28.5585 39.8483 29.7484C39.811 29.8799 39.6455 29.7692 39.6339 29.6777C39.1103 28.6228 38.6144 27.5491 37.9455 26.5751C37.8338 27.713 37.9099 28.8609 37.8591 30.0028C37.0602 30.1195 36.2474 30.0463 35.443 30.0491C35.4357 27.0996 35.4279 24.1497 35.447 21.2002C36.2332 21.0425 37.026 20.9157 37.807 20.7321C38.3969 21.9108 38.8965 23.133 39.4808 24.3147C39.5501 24.4431 39.6377 24.5604 39.7259 24.6772C40.1205 23.8547 40.4175 22.9905 40.7731 22.1513C41.084 21.4314 41.3694 20.701 41.6683 19.9761ZM74.148 19.5344C74.1379 23.0364 74.1433 26.5381 74.148 30.0402C74.9181 30.0759 75.6885 30.0649 76.4595 30.0522C76.4803 29.1263 76.4708 28.1986 76.4716 27.2726C77.2866 27.231 78.1077 27.1377 78.9207 27.2653C79.2309 27.2991 79.5743 27.3979 79.7387 27.69C80.1842 28.3936 80.0196 29.2628 80.144 30.0474C80.9087 30.074 81.6758 30.0625 82.4411 30.0547C82.4844 28.8369 82.4554 27.5147 81.7221 26.4811C82.4997 25.6183 82.5256 24.3818 82.4291 23.2889C82.34 22.7075 82.1687 22.1234 81.8186 21.6433C81.5535 21.2742 81.095 21.1384 80.6869 20.9942C78.5452 20.3518 76.3247 20.0294 74.148 19.5344ZM76.4837 22.5312C77.5052 22.5701 78.5278 22.7214 79.5167 22.9824C79.872 23.0498 79.9537 23.4464 79.9655 23.7521C79.9827 24.1531 80.0192 24.6374 79.6928 24.9345C79.5501 25.0031 79.3858 24.9804 79.2344 24.9875C78.3163 24.9622 77.3992 24.9535 76.4861 24.85C76.4834 24.0776 76.4901 23.3035 76.4837 22.5312Z" fill="#FD6300"/>
<path d="M84.6152 37.7334C85.1113 36.969 86.0755 36.6628 86.9503 36.7108C87.7918 36.6688 88.7118 36.8854 89.2846 37.5443C89.7241 38.0106 89.8349 38.6751 89.8682 39.2914C89.8684 40.2159 89.8681 41.1407 89.8686 42.0654C89.1313 42.0767 88.3941 42.0697 87.6573 42.0691C87.6539 41.2681 87.6875 40.4469 87.4669 39.6695C87.3694 39.2359 86.8119 39.003 86.4521 39.2803C86.07 39.6305 86.244 40.191 86.2037 40.6466C86.1592 41.4775 86.429 42.3784 87.1111 42.9004C87.9344 43.5421 88.9115 44.0572 89.462 44.9817C89.8609 45.7572 89.9247 46.6462 89.9712 47.5021C90.0091 48.5006 89.9781 49.5489 89.5304 50.4637C89.1412 51.2587 88.2972 51.7922 87.4131 51.8097C86.5852 51.8342 85.6489 51.8774 84.9698 51.3184C84.2305 50.6475 84.1406 49.5855 84.0281 48.655C83.9852 47.8003 83.9755 46.9438 83.9823 46.0883C84.7234 46.0923 85.4648 46.0816 86.2063 46.0947C86.2062 46.9825 86.1985 47.8706 86.2097 48.7586C86.1961 49.111 86.3946 49.5366 86.7831 49.5794C87.0072 49.6023 87.2868 49.633 87.4491 49.4383C87.6817 49.1369 87.7088 48.7375 87.7491 48.3731C87.7859 47.5894 87.7687 46.7355 87.3266 46.0563C86.8759 45.4912 86.1937 45.1955 85.6311 44.7635C85.0106 44.3244 84.4546 43.7485 84.1977 43.0199C83.9023 42.2971 84.0187 41.503 83.9938 40.7438C83.9798 39.7189 84.0302 38.6145 84.6152 37.7334ZM93.4272 36.6153C93.1098 36.6172 92.7924 36.6351 92.4885 36.7311C92.1053 36.8524 91.7122 37.0104 91.4389 37.3174C90.8972 37.8597 90.7063 38.6492 90.6764 39.3925C90.674 42.6417 90.6747 45.8915 90.674 49.1407C90.6628 49.8427 90.8772 50.5743 91.3738 51.0879C91.8274 51.6025 92.5114 51.8444 93.1762 51.93C94.7742 52.1693 96.4442 50.8673 96.5398 49.242C96.5453 46.2166 96.5401 43.19 96.5422 40.1647C96.564 39.2868 96.5158 38.3337 95.9848 37.5949C95.5578 36.9431 94.7583 36.6096 93.9966 36.6177C93.8079 36.6197 93.6176 36.6141 93.4272 36.6153ZM93.5309 39.0378C93.923 39.0383 94.3034 39.3572 94.3031 39.7689C94.3146 42.7013 94.3055 45.6338 94.3103 48.5664C94.315 48.9533 94.2056 49.4165 93.7939 49.5581C93.2663 49.6448 92.8237 49.133 92.7902 48.6388C92.7648 47.9058 92.7879 47.1714 92.7805 46.4382C92.804 44.1879 92.7315 41.9366 92.7853 39.6869C92.7833 39.3648 93.0562 39.1066 93.3644 39.0595C93.4199 39.046 93.4749 39.0378 93.5309 39.0378ZM63.191 36.9555C63.1843 37.0934 63.1764 37.2318 63.1693 37.3705C62.6849 42.1194 61.8626 46.8325 61.4851 51.5922C62.128 51.5859 62.7721 51.5938 63.4154 51.5922C63.5861 51.6364 63.5897 51.4222 63.6133 51.3147C63.7242 50.3505 63.8578 49.3897 63.9535 48.424C63.9802 48.3003 63.9696 48.1482 64.0717 48.0573C64.5649 48.043 65.0593 48.0542 65.5532 48.0549C65.7231 49.2345 65.8984 50.4135 66.0913 51.5898C66.79 51.5869 67.4891 51.5925 68.1881 51.5898C68.0519 50.391 67.8641 49.1969 67.7683 47.9945C67.7535 48.0441 67.7401 48.0957 67.7273 48.1466C67.7283 47.6252 67.6272 47.1133 67.5704 46.5975C67.1596 43.3861 66.7804 40.1691 66.3688 36.9579C65.3095 36.953 64.25 36.9559 63.191 36.9555ZM64.7473 40.2467C64.9762 41.3645 65.0369 42.506 65.1141 43.6417C65.1895 44.2004 65.1924 44.7652 65.2034 45.3283C64.8946 45.3248 64.5871 45.3234 64.2792 45.321C64.3967 43.626 64.5803 41.9377 64.7473 40.2467ZM67.5549 36.955C68.3014 36.9799 69.0533 36.9077 69.7964 36.9974C69.963 39.1851 70.1927 41.3675 70.417 43.5509C70.5041 44.1704 70.5143 44.7983 70.6335 45.4142C70.9804 42.5953 71.2975 39.7721 71.6729 36.9567C72.4069 36.955 73.1412 36.9585 73.8756 36.9555C73.1656 41.8312 72.5287 46.7175 71.8218 51.5937C71.0692 51.5831 70.3165 51.598 69.5644 51.5885C69.5388 51.5529 69.4876 51.4815 69.462 51.4459C68.8305 46.6149 68.162 41.7885 67.5549 36.955ZM74.2538 36.9574C74.9882 36.9542 75.7228 36.9573 76.4577 36.9558C76.4941 41.8386 76.4725 46.7219 76.4798 51.6051C75.7381 51.6075 74.9966 51.6053 74.2553 51.6061C74.2539 46.7232 74.2568 41.8403 74.2538 36.9574ZM77.4248 36.9531C77.4153 41.8348 77.4259 46.7176 77.4199 51.5994C78.3449 51.6143 79.2694 51.6013 80.1948 51.6067C80.9428 51.6191 81.7333 51.5446 82.3809 51.1361C83.0025 50.7303 83.2794 49.9608 83.2616 49.242C83.2649 45.9889 83.2642 42.7349 83.2616 39.4818C83.2666 38.8909 83.119 38.283 82.7621 37.8048C82.3422 37.2573 81.652 36.9653 80.9717 36.9555C79.7889 36.9543 78.6073 36.9576 77.4248 36.9531ZM80.243 39.2646C80.4059 39.266 80.5657 39.2859 80.7135 39.3636C81.0004 39.5139 81.2149 39.8241 81.1985 40.155C81.194 42.9599 81.1993 45.7663 81.1937 48.5712C81.1778 48.7829 81.1395 49.0734 80.8993 49.1407C80.5287 49.2563 80.1306 49.2052 79.7484 49.2251C79.7519 45.9066 79.7401 42.5879 79.7556 39.2695C79.9147 39.2791 80.0801 39.2633 80.243 39.2646ZM97.3543 36.9603C98.2846 36.9574 99.2158 36.948 100.146 36.9616L100.211 37.0087C100.658 39.1377 101.091 41.2708 101.556 43.3962C101.598 41.967 101.541 40.534 101.546 39.1032C101.574 38.3856 101.449 37.6739 101.494 36.9561C102.232 36.9569 102.97 36.9559 103.709 36.9563C103.712 41.7992 103.716 46.6422 103.707 51.485C102.845 51.4867 101.984 51.4885 101.123 51.4837C100.652 48.8608 100.15 46.2437 99.6699 43.6229C99.6181 45.2629 99.6731 46.9051 99.6598 48.5461C99.7081 49.5012 99.5957 50.4646 99.7403 51.4135C99.5685 51.4682 99.3906 51.4956 99.2119 51.4889C98.6303 51.4805 98.0487 51.4961 97.4679 51.4808C97.4402 51.4495 97.3846 51.3869 97.3568 51.3557C97.3456 46.5576 97.3509 41.7587 97.3543 36.9603ZM13.9207 37.0515C14.6423 37.0432 15.3641 37.0487 16.0858 37.0483C16.0987 38.911 16.0846 40.7738 16.0931 42.6366C16.6227 42.6428 17.1524 42.6415 17.6821 42.6382C17.6872 40.7912 17.6832 38.9444 17.6837 37.0976C18.4209 37.0986 19.1581 37.0912 19.8953 37.1031C19.8941 41.9712 19.8988 46.8394 19.8929 51.7076C19.1531 51.7184 18.4134 51.7091 17.6737 51.7132C17.661 49.6803 17.6994 47.6461 17.6544 45.6142C17.1408 45.6103 16.6271 45.6092 16.1136 45.6138C16.0618 47.6425 16.1037 49.6743 16.0924 51.7042C15.3674 51.7043 14.6424 51.7019 13.9175 51.7051C13.9242 46.8206 13.9178 41.9361 13.9207 37.0515ZM21.952 37.0978C21.7453 39.5081 21.4615 41.9142 21.2571 44.3245C21.2375 44.2653 21.2197 44.2068 21.2016 44.1484C21.2175 44.9685 21.067 45.7799 20.9965 46.5951C20.8235 48.3014 20.6329 50.0056 20.4705 51.7128C21.1752 51.7098 21.8819 51.7236 22.5866 51.7032C22.6384 50.5359 22.8764 49.3854 22.9389 48.2189C23.441 48.2052 23.9445 48.2129 24.4469 48.2141C24.604 49.3737 24.7542 50.5343 24.874 51.6984C25.551 51.7111 26.2284 51.6997 26.9057 51.7056C26.9037 51.1378 26.8294 50.575 26.773 50.0117C26.3262 45.7037 25.8654 41.3978 25.3421 37.0978C24.2119 37.0981 23.0822 37.0945 21.952 37.0978ZM23.53 40.2563C23.8331 41.5225 23.8997 42.831 24.0367 44.1218C24.08 44.5221 24.0903 44.9256 24.1019 45.3283C23.8377 45.3248 23.5743 45.3238 23.3104 45.321C23.3905 43.6331 23.5044 41.9467 23.53 40.2563ZM28.8239 37.0424C28.3944 37.0448 27.9653 37.0583 27.5379 37.1003C27.5241 41.9723 27.5321 46.8431 27.5186 51.7152C28.3036 51.7084 29.0883 51.713 29.8736 51.7128C29.8671 49.8432 29.8757 47.9724 29.8711 46.1028C30.2111 46.1154 30.5824 46.042 30.8918 46.2235C31.1888 46.3571 31.2957 46.7134 31.3092 47.0149C31.3122 48.4341 31.3068 49.8543 31.3117 51.2737C31.5326 51.4906 31.8003 51.7044 32.1272 51.7056C32.6275 51.724 33.1273 51.7078 33.628 51.7104C33.6233 50.017 33.6383 48.3244 33.6208 46.6313C33.6111 45.7421 33.2727 44.835 32.5422 44.2907C32.8303 43.9103 33.1534 43.5415 33.3144 43.0843C33.6286 42.3462 33.6289 41.5313 33.6136 40.7438C33.5636 39.7565 33.4617 38.7005 32.8776 37.8676C32.4557 37.2575 31.6861 37.0152 30.9714 37.0472C30.2562 37.065 29.5399 37.0383 28.8239 37.0424ZM29.8567 39.4263C30.2439 39.4441 30.6927 39.3587 31.0125 39.6338C31.2096 39.8552 31.2111 40.1719 31.2079 40.4518C31.1961 41.1935 31.2234 41.9376 31.1838 42.6789C31.1678 42.928 31.0406 43.2072 30.776 43.2701C30.4715 43.3 30.1641 43.2793 29.8591 43.2773C29.8523 41.9938 29.8598 40.7097 29.8567 39.4263ZM34.4688 37.0971C35.2465 37.0984 36.0242 37.0928 36.802 37.1011C36.8024 41.1505 36.7887 45.2003 36.8088 49.2495C37.5286 49.2674 38.2494 49.2721 38.9692 49.2471C38.9698 50.0662 38.9712 50.8855 38.9678 51.7049C37.4685 51.7044 35.9693 51.7007 34.4701 51.7067C34.4669 46.8368 34.4695 41.967 34.4688 37.0971ZM39.4367 37.106C40.9541 37.0847 42.472 37.104 43.9897 37.096C43.9788 37.8701 44.0009 38.6446 43.9775 39.4187C43.2405 39.4138 42.5035 39.4103 41.7668 39.422C41.7843 40.548 41.7352 41.676 41.7946 42.8008C42.5226 42.7967 43.2507 42.8025 43.9789 42.7981C43.9754 43.6496 43.9741 44.5012 43.9796 45.353C43.2533 45.348 42.5272 45.3529 41.8011 45.3498C41.7265 46.6366 41.7897 47.9281 41.7657 49.217C42.4963 49.2355 43.2275 49.2079 43.9582 49.2316C43.9597 50.0559 43.9551 50.8803 43.9609 51.7048C42.4531 51.6987 40.9452 51.7115 39.4376 51.6987C39.4412 46.8344 39.4424 41.9702 39.4367 37.106ZM44.2283 37.1151C44.9883 36.9886 45.7628 37.0672 46.5296 37.0513C46.7978 38.6402 47.1151 40.2223 47.5056 41.7861C48.016 40.2767 48.1219 38.6646 48.6054 37.1481L48.6625 37.1017C49.3682 37.0909 50.0749 37.0957 50.7811 37.1025C50.246 39.9984 49.385 42.8193 48.6213 45.6588C48.5839 47.6353 48.6203 49.6149 48.6035 51.5927C47.8632 51.5871 47.123 51.5931 46.3829 51.5893C46.3867 49.7114 46.381 47.8336 46.3861 45.9558C46.3881 45.7613 46.3749 45.5657 46.3197 45.3793C45.5987 42.6308 44.8149 39.8967 44.2283 37.1151ZM57.0646 37.0448C56.4971 37.0449 55.929 37.0558 55.3635 37.1099C55.365 41.9746 55.3625 46.8385 55.3659 51.7032C56.496 51.698 57.626 51.7141 58.7561 51.6984C59.7094 51.6679 60.6002 51.0475 60.9494 50.1589C61.2435 49.4699 61.1265 48.7091 61.1497 47.9825C61.1299 45.1195 61.1384 42.2556 61.1352 39.3925C61.1232 38.6803 60.9304 37.8888 60.3389 37.4332C59.9043 37.072 59.309 37.0333 58.7681 37.0472C58.2009 37.0563 57.6321 37.0446 57.0646 37.0448ZM57.9333 39.2598C58.2242 39.2589 58.5212 39.301 58.7271 39.5228C58.8787 39.6581 58.9176 39.8659 58.9057 40.0609C58.8913 42.8654 58.9222 45.6677 58.9177 48.4723C58.9395 48.7362 58.8481 49.0266 58.6137 49.172C58.2988 49.2682 57.9602 49.2079 57.6365 49.2203C57.6426 45.9034 57.623 42.586 57.6486 39.2695C57.7406 39.2651 57.8363 39.2601 57.9333 39.2598ZM50.412 43.5272C51.5248 43.5139 52.6379 43.5272 53.7509 43.5202C53.987 43.5141 54.2227 43.5387 54.4563 43.5761C54.4463 44.1648 54.4481 44.7538 54.4539 45.3428C53.1054 45.3612 51.7567 45.3475 50.4082 45.3495C50.41 44.7419 50.406 44.1345 50.412 43.5272Z" fill="white"/>
<path d="M48.1503 58.615C49.1363 58.5521 50.1262 58.5943 51.1139 58.5899C50.9319 59.1086 50.6315 59.5729 50.3876 60.063C49.4591 61.8671 48.5372 63.6744 47.6026 65.4754C47.5135 65.6516 47.4116 65.8333 47.4175 66.0383C47.3978 68.5468 47.4359 71.0562 47.3986 73.5646C46.8208 73.3254 46.3061 72.9656 45.7643 72.6592C45.4413 72.4654 45.1031 72.296 44.7947 72.0799C44.7003 72.0212 44.6424 71.9225 44.6577 71.8114C44.6449 69.8189 44.6786 67.8247 44.6411 65.8332C44.257 64.6971 43.7595 63.5975 43.333 62.4751C42.8276 61.1943 42.3083 59.9191 41.8033 58.6383C42.7991 58.6339 43.7955 58.6185 44.7912 58.6456C45.249 59.9366 45.7055 61.2292 46.1918 62.5095C46.2263 62.7258 46.4366 62.5749 46.4654 62.4385C47.0268 61.1641 47.5949 59.8922 48.1503 58.615ZM34.8993 60.5314C34.9032 59.5448 35.761 58.6321 36.7576 58.632C38.1616 58.6352 39.5658 58.6286 40.9699 58.6367C40.9722 59.4151 40.9737 60.1936 40.9684 60.9722C40.0792 60.9832 39.19 60.9653 38.3011 60.9781C38.0578 60.9708 37.7643 61.0452 37.7086 61.3205C37.6418 61.8573 37.696 62.4019 37.6806 62.9422C37.6964 63.4509 37.6404 63.965 37.7105 64.4707C38.1013 64.9578 38.7032 65.1875 39.2197 65.5104C40.1378 66.0761 41.1042 66.5603 42.0074 67.1507C42.0456 68.252 42.0196 69.3546 42.0205 70.4566C39.9261 69.141 37.8924 67.7308 35.815 66.3883C35.2335 66.0267 34.8929 65.3551 34.8965 64.6763C34.9017 63.2946 34.8951 61.9128 34.8993 60.5314ZM51.4563 60.5236C51.394 59.5046 52.359 58.6057 53.3563 58.6317C55.0136 58.6375 56.6712 58.6235 58.3286 58.6393C58.3216 59.4171 58.3293 60.1951 58.3236 60.9732C57.2791 60.9808 56.2345 60.9696 55.1903 60.9768C54.8352 60.9633 54.4687 61.1423 54.3063 61.4666C54.1436 61.8066 54.2062 62.1923 54.1976 62.5563C54.2021 66.1299 54.1971 69.7037 54.1998 73.2773C54.1945 73.6312 54.353 74.0147 54.7042 74.1496C55.9043 74.627 57.1292 75.0433 58.3288 75.5228C58.3178 76.4083 58.3333 77.294 58.3219 78.1798C57.4675 77.9715 56.6534 77.6295 55.8148 77.3688C54.748 76.9836 53.6663 76.6188 52.6609 76.0883C52.0301 75.7347 51.4155 75.1136 51.4609 74.3367C51.4533 69.7324 51.4623 65.1279 51.4563 60.5236ZM59.5952 58.6433C60.5022 58.6342 61.4113 58.6119 62.3177 58.6488L62.3752 58.709C62.3977 64.0722 62.3646 69.4374 62.3916 74.8012C63.6219 74.4615 64.8229 74.0197 66.0518 73.6726C66.0633 74.5238 66.0588 75.3753 66.0553 76.2269C64.5845 76.8527 63.066 77.3737 61.5086 77.7371C60.8798 77.8756 60.2519 78.0514 59.6039 78.0609C59.5988 71.5883 59.616 65.1156 59.5952 58.6433ZM66.9147 59.592C67.2653 59.0168 67.9203 58.6052 68.605 58.6314C70.1411 58.6348 71.6773 58.6308 73.2136 58.6346C73.2084 59.414 73.2152 60.1935 73.2096 60.9732C72.2538 60.9806 71.2978 60.9665 70.3424 60.9775C69.8608 60.9604 69.4057 61.3829 69.4361 61.8734C69.4381 62.6819 69.4227 63.4912 69.4525 64.2998C70.412 64.351 71.3736 64.3064 72.3343 64.3246C72.3311 65.0718 72.3421 65.8193 72.332 66.5668C71.3699 66.5798 70.4077 66.5566 69.4459 66.5789C69.4233 67.7811 69.4442 68.9839 69.4339 70.1865C69.4107 70.4498 69.5165 70.6939 69.6285 70.9262C70.1636 70.9922 70.5859 70.6168 71.0293 70.3843C71.7845 69.9764 72.5119 69.5179 73.278 69.1302C73.2888 70.0711 73.2864 71.0123 73.2795 71.9536C72.2302 72.6465 71.1398 73.2747 70.0797 73.9509C69.4488 74.3271 68.8025 74.8006 68.0313 74.7736C67.4856 74.8304 66.9682 74.4464 66.811 73.9315C66.6378 73.3425 66.6468 72.7196 66.652 72.1116C66.6503 68.4441 66.6546 64.7767 66.6498 61.1093C66.6379 60.5951 66.6686 60.0545 66.9147 59.592ZM74.5653 59.9616C74.5816 59.1777 75.3759 58.5662 76.1332 58.6235C78.1047 58.6559 80.0775 58.6038 82.0488 58.6519C82.0396 59.4265 82.103 60.2066 81.9992 60.9772C80.6228 60.9741 79.2465 60.9732 77.8704 60.9755C77.6702 60.9583 77.4711 61.0405 77.3695 61.219C77.3062 61.5903 77.2806 62.0102 77.5407 62.3169C78.5875 62.3315 79.6346 62.3194 80.6817 62.3233C81.255 62.3162 81.8437 62.616 82.1031 63.1417C82.3493 63.5476 82.2408 64.0374 82.2601 64.4865C82.2385 64.9604 82.3046 65.4427 82.2255 65.9118C82.0119 66.3547 81.5953 66.654 81.2376 66.9757C79.9174 68.0045 78.4805 68.8706 77.0475 69.7308C76.2606 70.2275 75.4392 70.6658 74.6364 71.1355C74.6171 70.1839 74.6246 69.2321 74.6316 68.2807C75.9208 67.5042 77.2726 66.8332 78.541 66.0219C78.8864 65.764 79.3636 65.4971 79.3228 64.9984C79.0768 64.8989 78.822 64.8052 78.5533 64.8123C77.7148 64.8052 76.8762 64.819 76.038 64.8122C75.5803 64.8133 75.1249 64.6035 74.8411 64.2431C74.61 63.9649 74.5576 63.5873 74.5592 63.2379C74.5636 62.1457 74.553 61.0534 74.5653 59.9616Z" fill="#FD6300"/>
<path d="M100.987 59.774C100.857 59.7742 100.726 59.7876 100.598 59.8127C100.049 59.9257 99.5635 60.303 99.31 60.802C99.1175 61.1866 99.1258 61.6322 99.1725 62.0494C99.3018 62.5881 99.6802 63.0775 100.193 63.3017C100.941 63.6717 101.931 63.464 102.454 62.8095C103.012 62.1631 103.008 61.1139 102.471 60.4569C102.118 60.0063 101.552 59.7735 100.987 59.774ZM101.016 60.095C101.784 60.1035 102.524 60.7904 102.468 61.5886C102.565 62.4684 101.708 63.2574 100.847 63.1497C100.295 63.0765 99.7848 62.6945 99.6068 62.1604C99.395 61.5674 99.5809 60.8617 100.043 60.4557C100.196 60.3204 100.381 60.2185 100.591 60.1649C100.73 60.1164 100.874 60.0934 101.016 60.095ZM100.922 60.5582C100.715 60.562 100.506 60.5772 100.302 60.5655C100.303 61.2784 100.299 61.99 100.304 62.7033C100.411 62.7016 100.52 62.7009 100.63 62.7009C100.634 62.3872 100.633 62.0751 100.637 61.7623C100.719 61.7612 100.881 61.7585 100.963 61.7575C101.153 62.0681 101.347 62.3762 101.527 62.6937C101.624 62.6943 101.817 62.6955 101.914 62.6961C101.739 62.39 101.543 62.098 101.349 61.8057C101.534 61.6943 101.771 61.6128 101.844 61.3859C101.909 61.1069 101.853 60.7039 101.532 60.6186C101.333 60.5612 101.128 60.5545 100.922 60.5582ZM100.849 60.8502C101.07 60.8463 101.29 60.8563 101.491 60.9612C101.467 61.1217 101.545 61.3423 101.368 61.4365C101.126 61.4888 100.876 61.4647 100.632 61.4655C100.633 61.2612 100.632 61.0582 100.63 60.855C100.702 60.8534 100.776 60.8515 100.849 60.8502Z" fill="black"/>
</svg>
