<svg width="114" height="87" viewBox="0 0 114 87" fill="none" xmlns="http://www.w3.org/2000/svg">
<g clip-path="url(#clip0_208_335)">
<path fill-rule="evenodd" clip-rule="evenodd" d="M52.7548 62.9513L25.9032 65.8387L31.2042 71.0103H69.2182L55.1251 62.6913L52.7548 62.9513ZM52.7548 41.5302L89.7351 31.6597C89.7351 31.6597 95.1228 31.272 100.467 19.1608L52.7548 34.8066L15.6451 46.9172C15.6451 46.9172 12.4555 47.9516 11.2056 48.8137C11.2056 48.8137 10.3435 49.3314 10.3435 50.5373C10.3435 50.5373 10.4296 51.4428 11.0762 52.0899L12.671 53.6847L32.9279 48.4259C32.9279 48.4259 31.678 46.7878 34.1777 46.4434L52.7548 41.5302ZM52.7548 60.8388C52.7976 61.2699 53.1425 61.6587 53.1425 61.6587L52.7548 61.7009L24.6101 64.8905L19.2652 59.8912L52.7542 53.8997L81.3722 48.8137C76.6751 58.0381 67.1924 58.0381 67.1924 58.0381L55.3834 59.5462C53.4008 59.5895 52.8409 60.1061 52.7542 60.6244L52.7548 60.8388ZM52.7548 44.8914L91.761 35.0221C87.1493 45.4524 77.8827 45.7968 77.8827 45.7968L52.7548 50.8829L44.5225 52.5632C40.5569 52.6499 42.2811 54.6757 42.2811 54.6757L18.2742 58.7708L13.792 54.8051L52.7548 44.8914ZM52.7548 23.8158L107.277 1.53247C107.277 1.53247 105.423 7.00679 104.259 9.80809C104.259 9.80809 102.837 14.2475 97.1486 16.0145L52.7548 31.7037L14.2658 45.2369C14.2658 45.2369 9.30979 47.0045 8.49044 49.0737C8.49044 49.0737 7.32669 51.4434 10.4735 54.1164L29.0495 71.0114H21.766L6.81011 56.3572C6.81011 56.3572 3.44832 53.5986 3.18945 49.6764V48.8576C3.23279 48.5993 3.23279 48.341 3.31888 48.0388C3.31888 48.0388 3.96547 43.7282 10.4302 41.0997L52.7548 23.8158ZM13.1021 73.7694H3.44832V76.1402H5.6458V83.3376H3.44832V85.7945H13.1021V83.3376H10.7318V81.0535H17.8437V83.3376H15.5162V85.7945H25.0417V83.3376H22.7575V76.1402H25.0417V73.7694H15.4729V76.1402H17.8437V78.5099H10.7318V76.1402H13.1021V73.7694ZM97.8813 79.3298H99.7344L97.8813 76.5279L97.6652 76.2697L95.9849 79.3298H97.8813ZM97.8813 73.7694H101.717L107.492 83.3376H109.863V85.7945H99.475V83.3376H101.802L100.811 81.9156H94.5195L93.7435 83.3376H96.0276V85.7945H88.0115V83.3376H90.4684L94.4328 76.1402H91.761V73.7694H97.8813ZM79.3909 83.2082C81.675 82.9499 83.0115 82.0878 83.0115 79.8464C83.0115 77.2606 81.5034 76.4418 79.3909 76.2258C79.0031 76.1824 78.6148 76.1824 78.1849 76.1824H75.7708V83.2943H77.7105C78.3138 83.2943 78.8737 83.2515 79.3909 83.2082ZM79.3909 73.7694H80.9423C84.9079 73.7694 87.8826 75.6225 87.8826 79.8464C87.8826 84.7163 85.0807 85.7084 79.3909 85.7945H68.5728V83.3376H70.9003V76.1402H68.5728V73.7694H79.3909ZM35.1698 83.7687C37.4112 83.7253 39.1782 81.9589 39.1782 79.8031C39.1782 77.5189 37.3679 75.7953 35.1698 75.7953H35.1265C32.9284 75.7953 31.1614 77.5189 31.1614 79.7609C31.1614 81.8723 32.8423 83.7687 35.0837 83.7687H35.1698ZM35.1698 73.1656H35.2993C40.9452 73.1656 44.652 75.2781 44.652 79.6314C44.652 83.6393 41.2468 86.3111 35.1698 86.3111H34.9976C29.0928 86.3111 25.5583 84.027 25.5583 79.7175C25.5583 75.5797 29.0495 73.1656 35.1698 73.1656ZM54.9529 73.7694H45.428V76.1402H47.7121V83.3376H45.428V85.7945H53.0137V83.3376H50.6429V77.1745L57.3237 85.794H64.6939V76.1397H67.1069V73.7688H59.2623V76.1397H61.7192V82.4749L54.9529 73.7694Z" fill="#FF0000"/>
</g>
<defs>
<clipPath id="clip0_208_335">
<rect width="114" height="85.5" fill="white" transform="translate(0 0.950684)"/>
</clipPath>
</defs>
</svg>
