<svg width="245" height="27" viewBox="0 0 245 27" fill="none" xmlns="http://www.w3.org/2000/svg">
<g clip-path="url(#clip0_193_898)">
<path fill-rule="evenodd" clip-rule="evenodd" d="M0.897949 16.2882V26.1212H23.3613V14.8888H27.7425C30.5384 14.8888 35.1984 15.3548 39.4408 16.2882C44.3809 17.3588 48.7621 19.1299 48.7621 21.6471C48.7621 23.744 45.5001 26.1212 45.4072 26.1212H77.5177C77.5177 26.1212 76.7258 22.5791 75.0477 20.2491C73.9756 18.7124 72.6248 17.3602 70.5736 16.2895C68.8026 15.3562 66.5184 14.6114 63.3965 14.0983V13.5851C64.8416 13.5851 68.7096 12.1871 72.0645 9.95009C76.5844 6.91975 77.4234 1.28207 77.4234 1.28207H45.6388C45.6388 1.28207 48.2961 3.47334 48.2961 5.476C48.2961 9.66994 33.29 12.839 27.8368 12.839H23.3627V1.28207H0.897949V16.2882ZM83.1083 16.2882V1.42214H91.1702V9.43833L98.3016 1.42214H107.762L98.7676 10.7434L102.355 16.2895L108.741 26.1225H99.0477L93.0827 16.2895L91.1716 18.2922V26.1225H83.1096L83.1083 16.2882ZM110.746 16.2882C114.567 14.7501 120.16 15.6349 120.16 13.3979C120.16 12.0928 118.576 11.9528 117.83 11.9528C116.805 11.9528 115.5 12.1386 115.314 13.6766H108.463C108.463 9.85578 111.166 7.66451 118.251 7.66451C126.778 7.66451 127.292 10.7864 127.292 15.0746V23.5097C127.292 24.5346 127.339 25.0463 128.271 25.7925V26.1184H120.861L120.535 24.2073C118.531 26.1184 116.434 26.6301 113.776 26.6301C110.374 26.6301 107.345 24.9534 107.345 21.2255C107.343 18.4794 108.835 17.0801 110.746 16.2882ZM129.201 16.2882L126.498 8.17765H133.442L135.446 16.2882L136.191 19.27L136.983 16.2882L139.034 8.17765H145.094L147.096 16.2882L147.842 19.27L148.589 16.2882L150.686 8.17765H157.444L154.832 16.2882L151.71 26.1212H144.766L142.156 16.2882L141.969 15.5878L141.783 16.2882L139.406 26.1212H132.416L129.201 16.2882ZM158.748 16.2882C162.523 14.7501 168.115 15.6349 168.115 13.3979C168.115 12.0928 166.578 11.9528 165.785 11.9528C164.805 11.9528 163.453 12.1386 163.315 13.6766H156.416C156.416 9.85578 159.166 7.66451 166.251 7.66451C174.733 7.66451 175.245 10.7864 175.245 15.0746V23.5097C175.245 24.5346 175.29 25.0463 176.224 25.7925V26.1184H168.859L168.486 24.2073C166.482 26.1184 164.431 26.6301 161.728 26.6301C158.373 26.6301 155.343 24.9534 155.343 21.2255C155.345 18.4794 156.791 17.0801 158.748 16.2882ZM177.25 16.2882C176.737 15.5878 176.458 14.7029 176.458 13.5837C176.458 8.96957 181.212 7.66451 184.986 7.66451C188.9 7.66451 193.468 8.55073 193.887 13.3036H187.409C187.316 12.6975 187.083 12.3244 186.71 11.9999C186.337 11.674 185.824 11.5339 185.265 11.5339C184.054 11.5339 183.262 11.9541 183.262 12.839C183.262 14.61 188.9 14.2841 192.21 16.2882C193.608 17.1258 194.587 18.3851 194.587 20.3892C194.587 24.1171 191.511 26.6329 184.939 26.6329C180.838 26.6329 176.271 25.375 175.898 20.5292H182.702C182.702 21.274 182.981 21.8329 183.447 22.2074C183.913 22.5319 184.519 22.7191 185.218 22.7191C186.288 22.7191 187.455 22.3932 187.455 21.1339C187.457 18.7124 179.72 19.9232 177.25 16.2882ZM198.27 16.2882C202.045 14.7501 207.637 15.6349 207.637 13.3979C207.637 12.0928 206.051 11.9528 205.307 11.9528C204.327 11.9528 202.975 12.1386 202.791 13.6766H195.941C195.941 9.85578 198.643 7.66451 205.774 7.66451C214.256 7.66451 214.768 10.7864 214.768 15.0746V23.5097C214.768 24.5346 214.815 25.0463 215.747 25.7925V26.1184H208.337L208.011 24.2073C206.007 26.1184 203.956 26.6301 201.253 26.6301C197.851 26.6301 194.82 24.9534 194.82 21.2255C194.819 18.4794 196.311 17.0801 198.27 16.2882ZM216.166 16.2882V1.42214H223.296V13.6323L227.863 8.17904H236.206L229.541 15.1232L230.333 16.2895L237.091 26.1225H228.515L224.647 19.7373L223.294 21.0895V26.1225H216.165L216.166 16.2882ZM237.509 8.17904V26.1225H244.64V8.17904H237.509ZM237.509 0.768921V5.84908H244.64V0.768921L237.509 0.768921ZM207.635 18.1979C205.305 19.3171 202.23 18.7568 202.23 21.0882C202.23 21.973 203.068 22.5791 204.468 22.5791C206.985 22.5804 207.822 20.6222 207.635 18.1979ZM168.115 18.1979C165.785 19.3171 162.71 18.7568 162.71 21.0882C162.71 21.973 163.548 22.5791 164.993 22.5791C167.464 22.5804 168.302 20.6222 168.115 18.1979ZM120.159 18.1979C117.829 19.3171 114.753 18.7568 114.753 21.0882C114.753 21.973 115.592 22.5791 116.99 22.5791C119.507 22.5804 120.346 20.6222 120.159 18.1979Z" fill="#ED1C24"/>
</g>
<defs>
<clipPath id="clip0_193_898">
<rect width="244" height="25.864" fill="white" transform="translate(0.768555 0.768677)"/>
</clipPath>
</defs>
</svg>
