<svg width="245" height="38" viewBox="0 0 245 38" fill="none" xmlns="http://www.w3.org/2000/svg">
<path d="M78.6393 6.21933H71.2236V6.30977C71.4628 6.76199 71.6223 7.3951 71.6223 8.02821C71.6223 9.0231 71.0641 10.832 70.9046 11.646L66.2 27.0215C65.5621 29.0113 65.4824 29.5539 64.366 31.4533V31.5437H70.5059V31.4533C70.187 30.8202 70.0275 30.2775 70.0275 29.6444C70.0275 28.6495 70.4262 27.2928 70.6654 26.5693L70.9843 25.4839H77.6824C77.6824 25.4839 78.0811 26.8406 78.4 27.6546C78.6392 28.3782 78.719 29.1017 78.719 29.5539C78.719 30.0966 78.6392 30.5488 78.4 31.4533V31.5437H87.3307V31.4533C86.3739 30.0966 85.8955 28.559 85.0981 26.0266L78.6393 6.21933ZM72.1804 21.3235L74.2536 14.2689L76.4066 21.3235H72.1804ZM60.5386 25.9362C60.5386 28.1973 60.6981 30.2775 61.336 31.4533V31.5437H52.5647V31.4533C53.4419 29.7348 53.2824 28.0164 53.2824 26.0266V21.8662V20.8713L52.0863 18.2484L47.8602 9.29443C47.302 8.02821 46.8236 7.21421 45.9464 6.30977V6.21933H53.6013V6.30977L58.1464 16.8013C58.1464 16.8013 59.183 14.4497 59.4223 13.9071C59.9007 12.8218 60.4589 11.5555 60.6981 11.0129C61.0968 10.1989 61.4955 9.0231 61.4955 8.11865C61.4955 7.21421 61.2562 6.76199 61.017 6.40022V6.21933H67.0772V6.30977L60.9373 20.0573L60.4589 21.0522L60.5386 25.9362ZM104.634 31.5437H88.9255V31.4533C89.5634 29.8253 89.6432 28.4686 89.6432 26.0266V11.7364C89.6432 8.75176 89.404 7.57599 88.9255 6.40022V6.30977H97.4576V6.40022C96.8994 8.11866 96.8196 9.11354 96.8196 11.8269V26.3884C97.7765 26.5693 98.8928 26.7502 100.089 26.7502C102.641 26.7502 103.996 26.4788 104.953 26.0266H105.192L104.634 31.5437ZM35.5804 5.58622C28.6432 5.58622 23.8589 10.4702 23.8589 17.344C23.8589 27.3833 33.268 28.8304 36.5373 25.5744L35.9791 24.3082C33.1085 24.9413 30.5569 22.4993 30.5569 16.9822C30.5569 12.5504 32.6301 9.74665 35.5007 9.74665C38.8497 9.74665 40.9229 13.5453 40.9229 19.0624C40.9229 25.3031 37.7334 30.0062 31.8327 30.0062C25.0549 30.0062 19.9517 23.9464 16.7621 17.8866C20.2706 16.3491 22.3438 13.3644 22.3438 9.29443C22.3438 4.04867 18.8353 0.340454 12.536 0.340454H0.575195V0.430898C1.05363 1.60667 1.29284 3.77733 1.29284 6.76199V26.0266C1.29284 28.4686 1.2131 29.8253 0.575195 31.4533V31.5437H9.42618V31.4533C8.86801 29.9157 8.70853 27.8355 8.70853 26.0266C8.70853 23.042 8.70853 20.6904 8.70853 20.6904C8.78827 20.6904 9.66539 20.6904 9.82487 20.6904C15.9647 30.9106 22.9817 35.1615 30.4772 35.1615C41.3216 35.1615 47.7007 27.3833 47.7007 18.7911C47.7007 11.4651 42.8366 5.58622 35.5804 5.58622ZM8.78827 16.6204V5.134H11.2602C14.1308 5.134 15.3268 7.03333 15.3268 10.1084C15.3268 13.8166 13.4131 16.7109 10.3033 16.7109C9.82487 16.6204 8.94774 16.6204 8.78827 16.6204ZM157.501 6.30977C157.022 7.48555 156.783 8.75176 156.783 11.646V27.3833C156.863 29.0113 156.943 30.0966 157.501 31.3628V31.4533H156.783H155.348H152.318C151.201 30.9106 150.005 29.373 148.41 27.4737C147.135 25.9362 141.154 18.0675 141.154 18.0675H141.075C141.075 18.0675 141.075 25.4839 141.075 25.5744C139.32 25.7553 137.247 26.2979 135.652 26.7502V25.1222V11.5555C135.652 8.57088 135.413 7.3951 134.935 6.21933V6.12888H139.4H141.234L151.361 20.0573V11.7364C151.361 8.75176 151.122 7.57599 150.643 6.40022V6.30977H155.348H157.501ZM147.055 31.5437C138.204 31.6341 136.131 37.0608 124.888 37.0608C119.465 37.0608 114.681 35.4328 114.681 35.4328V35.3424C115.319 33.7144 115.399 32.4481 115.399 30.0062V6.76199C115.399 3.77733 115.16 1.60667 114.681 0.430898V0.340454H132.782L133.34 6.03844C131.984 5.40533 130.31 5.22444 127.918 5.22444H123.133V15.0829H125.446C129.034 15.0829 131.107 14.8115 131.665 14.6306H131.825V20.6H131.745C131.027 20.3286 128.556 20.0573 125.605 20.0573H123.213V29.9157C123.213 29.9157 126.004 30.6393 128.556 30.6393C135.254 30.6393 138.124 27.9259 144.743 27.9259C144.982 27.9259 145.141 27.9259 145.301 27.9259C146.577 29.6444 147.693 31.001 148.171 31.5437C147.693 31.5437 147.693 31.5437 147.055 31.5437ZM185.569 11.7364V26.1171C185.569 28.559 185.648 29.9157 186.286 31.5437V31.6341H177.675V31.5437C178.312 29.9157 178.392 28.559 178.392 26.1171V11.7364C178.392 8.75176 178.153 7.57599 177.675 6.40022V6.30977H186.286V6.40022C185.808 7.57599 185.569 8.75176 185.569 11.7364ZM168.265 17.2535H168.903C172.093 17.2535 173.129 16.9822 173.608 16.8917H173.767V22.1375H173.608C172.97 21.8662 171.614 21.5948 168.983 21.5948H168.265V24.6699V25.9362C168.265 28.4686 168.345 30.187 169.063 31.4533V31.5437H160.371V31.4533C161.009 29.8253 161.089 28.4686 161.089 26.0266V11.7364C161.089 8.75176 160.85 7.57599 160.371 6.40022V6.30977H175.203L175.761 11.4651H175.681C174.644 10.9224 173.289 10.6511 171.136 10.6511H168.265V14.8115V17.2535ZM205.105 26.2979L204.546 31.5437H194.26H189.237V31.4533C189.875 29.8253 189.954 28.4686 189.954 26.0266V11.7364C189.954 8.75176 189.715 7.57599 189.237 6.40022V6.30977H204.068L204.626 11.4651H204.546C203.51 10.9224 202.154 10.6511 200.001 10.6511H197.131V16.4395H197.689C200.878 16.4395 201.915 16.1682 202.394 16.0777H202.553V21.3235H202.394C201.756 21.0522 200.4 20.7808 197.769 20.7808H197.051V26.7502C198.088 26.931 198.805 27.0215 200.001 27.0215C202.712 27.0215 203.669 26.8406 204.786 26.2979H205.105ZM244.575 19.6955C244.575 28.3782 238.994 35.1615 229.584 35.1615C222.328 35.1615 220.016 31.5437 211.005 31.5437H207.258V31.4533C207.895 29.8253 207.975 28.4686 207.975 26.0266V11.646C207.975 8.66132 207.736 7.48555 207.258 6.30977V6.21933H215.869V6.30977C215.391 7.48555 215.152 9.38487 215.152 11.7364V27.1119C220.494 27.1119 222.886 28.9208 227.591 28.9208C234.129 28.9208 237.319 24.8508 237.319 19.0624C237.319 14.088 235.086 10.3798 231.179 10.3798C230.461 10.3798 229.425 10.3798 228.627 10.3798V26.0266C226.235 26.1171 223.444 25.7553 221.451 24.9413V11.646C221.451 8.66132 221.212 7.48555 220.733 6.30977V6.21933H230.86C239.233 6.21933 244.575 12.0982 244.575 19.6955Z" fill="#DA291C"/>
</svg>
