<svg width="229" height="52" viewBox="0 0 229 52" fill="none" xmlns="http://www.w3.org/2000/svg">
<g clip-path="url(#clip0_193_854)">
<path d="M134.535 32.8502L149.102 16.9225V11.1306H119.018V18.3705H133.743L119.018 34.2982V40.0901H149.102V32.8502H134.535ZM218.768 11.1306H228.268V40.0901H218.768V11.1306ZM216.552 11.1306H203.727L193.435 21.4474V11.1306H183.935V40.0901H193.435V28.6873L203.41 40.0901H216.235L201.985 24.8864L216.552 11.1306ZM171.268 11.1306V28.6873C171.268 31.2213 170.635 34.2982 165.568 34.2982C160.502 34.2982 160.185 31.2213 160.185 28.6873V11.1306H150.685V29.5923C150.685 38.2801 152.743 41.9001 165.252 41.9001C177.76 41.9001 180.768 38.2801 180.768 29.5923V11.1306H171.268ZM107.935 11.1306V28.6873C107.935 31.2213 107.302 34.2982 102.235 34.2982C97.1685 34.2982 96.8518 31.2213 96.8518 28.6873V11.1306H87.3518V29.5923C87.3518 38.2801 90.3602 41.9001 102.868 41.9001C115.377 41.9001 117.435 38.2801 117.435 29.5923V11.1306H107.935ZM65.9768 31.0403C66.4518 33.0312 67.5602 34.2982 70.7268 34.2982C73.1018 34.2982 74.2102 33.7552 74.2102 32.8502C74.2102 30.4973 72.7852 30.4973 63.1268 29.0493C53.6268 27.6013 53.9435 20.7234 53.9435 19.6375C53.9435 10.4066 65.3435 10.4066 69.3018 10.4066C76.4268 10.4066 84.1852 12.9406 84.1852 19.9994H73.1018C72.7852 18.5515 71.2018 17.1035 68.3518 17.1035C65.9768 17.1035 64.7102 17.6465 64.7102 18.7325C64.7102 20.7234 65.5018 20.5424 74.8435 22.1714C84.3435 23.8004 85.2935 29.0493 85.2935 31.9452C85.2935 41.5381 73.5768 40.9951 69.6185 40.9951C60.1185 40.9951 54.1018 38.6421 53.7852 30.8593H65.9768V31.0403Z" fill="white"/>
<path d="M43.8102 17.8279C41.1185 20.3619 33.0436 23.9818 28.1352 20.3619L16.7352 11.312L14.8352 12.579L43.8102 35.5656C36.5269 38.8236 28.1352 45.3394 22.1186 51.1313L0.585221 33.5747C3.75189 30.8597 11.1936 27.6018 16.1019 31.2217L27.6602 40.4525L29.2435 39.1856L0.268555 16.018C6.44355 13.484 17.6852 5.52015 21.9602 0.27124L43.8102 17.8279Z" fill="#E20A17"/>
</g>
<defs>
<clipPath id="clip0_193_854">
<rect width="228" height="50.876" fill="white" transform="translate(0.268555 0.262695)"/>
</clipPath>
</defs>
</svg>
