<svg width="118" height="91" viewBox="0 0 118 91" fill="none" xmlns="http://www.w3.org/2000/svg">
<g clip-path="url(#clip0_193_875)">
<path d="M0.739258 76.9701V89.9608H3.15984V84.2851H8.46264V82.2433H3.15984V79.006H9.02488V76.9701H0.739258Z" fill="white"/>
<path d="M10.4395 81.1486C10.4395 78.3847 12.8483 76.6862 15.4937 76.6862C18.1866 76.6862 20.5775 78.3847 20.5775 81.1486V85.7234C20.5775 88.4754 18.1984 90.2391 15.4937 90.2391C12.8127 90.2391 10.4395 88.4754 10.4395 85.7234V81.1486ZM18.1688 81.1486C18.1688 79.5743 16.926 78.7339 15.4937 78.7339C14.0793 78.7339 12.8364 79.5743 12.8364 81.1486V85.7234C12.8364 87.3036 14.0674 88.2032 15.4937 88.2032C16.9379 88.2032 18.1688 87.3036 18.1688 85.7234V81.1486Z" fill="white"/>
<path d="M28.1413 76.9701C31.0649 76.9701 32.361 78.7574 32.361 81.0951C32.361 82.9298 31.5148 84.3857 29.6623 84.871L32.8996 89.9608H30.189L27.2121 85.2084H25.0519V89.9608H22.6313V76.9701H28.1413ZM25.0519 83.1725H28.1413C29.39 83.1725 29.9404 82.3498 29.9404 81.0951C29.9404 79.8346 29.39 79.006 28.1413 79.006H25.0519V83.1725Z" fill="white"/>
<path d="M45.677 79.006V89.9608H43.2564V79.006H39.6699V76.9701H49.228V79.006H45.677Z" fill="white"/>
<path d="M58.5968 89.9608V84.2852H53.4005V89.9608H50.9858V76.9761H53.4005V82.2434H58.5968V76.9761H61.0174V89.9608H58.5968Z" fill="white"/>
<path d="M65.924 79.006V82.2374H71.5582V84.2851H65.924V87.9249H72.2862V89.9608H63.5034V76.9701H72.1145V79.006H65.924Z" fill="white"/>
<path d="M85.2355 76.9701C88.165 76.9701 89.4611 78.7574 89.4611 81.0951C89.4611 82.9298 88.609 84.3857 86.7565 84.871L89.9938 89.9608H87.2891L84.3122 85.2084H82.152V89.9608H79.7314V76.9701H85.2355ZM82.152 83.1725H85.2355C86.4901 83.1725 87.0346 82.3498 87.0346 81.0951C87.0346 79.8346 86.4901 79.006 85.2355 79.006H82.152V83.1725Z" fill="white"/>
<path d="M91.9224 89.9667H94.3489V76.9761H91.9224V89.9667Z" fill="white"/>
<path d="M101.635 76.9701C104.292 76.9701 106.712 78.6627 106.712 81.4266V85.4569C106.712 88.1971 104.327 89.9608 101.635 89.9608H96.8467V76.9701H101.635ZM99.2613 87.9249H101.635C103.067 87.9249 104.298 87.0371 104.298 85.4569V81.4266C104.298 79.8464 103.067 79.006 101.635 79.006H99.2613V87.9249Z" fill="white"/>
<path d="M111.169 79.006V82.2374H116.803V84.2851H111.169V87.9249H117.537V89.9608H108.749V76.9701H117.366V79.006H111.169Z" fill="white"/>
<path d="M59.1414 68.4535C59.7215 68.4535 60.2776 68.3766 60.7867 68.2227C61.3252 68.0688 61.8283 67.8203 62.2899 67.4948C62.7396 67.1811 63.1481 66.8023 63.5446 66.323C63.9116 65.885 64.2548 65.3879 64.5981 64.7901C64.5981 64.7901 95.5034 10.9099 95.7638 10.4305C96.0243 9.95707 96.2432 9.46585 96.4089 8.97463C96.5747 8.47158 96.6989 7.97444 96.764 7.48322C96.8353 6.97426 96.8475 6.47711 96.799 5.99773C96.7808 5.74325 96.6748 4.96794 96.3433 4.25775C96.0178 3.57122 95.6509 3.13327 95.1833 2.69532C94.7157 2.25735 93.8753 1.78389 93.1652 1.55308C92.7746 1.42294 92.3248 1.31635 91.8454 1.25125C91.4074 1.19201 90.9221 1.16248 90.3658 1.16248H27.9159C27.3596 1.16248 26.8684 1.19201 26.4304 1.25125C25.9629 1.3164 25.5012 1.42288 25.1106 1.55308C24.4064 1.78389 23.566 2.25735 23.0984 2.69532C22.6309 3.13327 22.2639 3.57122 21.9384 4.25775C21.6069 4.96794 21.5004 5.74325 21.4768 5.99773C21.4298 6.47711 21.4404 6.97426 21.5116 7.48322C21.5828 7.97444 21.7011 8.47158 21.8728 8.97463C22.0385 9.46585 22.2574 9.95707 22.5179 10.4305C22.7723 10.9099 53.6836 64.7901 53.6836 64.7901C54.0209 65.3879 54.3701 65.885 54.7312 66.323C55.1277 66.8023 55.5358 67.1811 55.9857 67.4948C56.4532 67.8203 56.9562 68.0688 57.4889 68.2227C57.9978 68.3766 58.5555 68.4535 59.1414 68.4535Z" fill="white"/>
<path d="M27.9164 2.63062C26.9398 2.63062 26.2179 2.72532 25.5846 2.93837C24.3831 3.34673 23.5724 4.07468 23.1759 5.09855C22.6786 6.3769 22.9155 8.11097 23.8032 9.72666L54.9571 64.0626C56.129 66.1162 57.3837 66.9921 59.1414 66.9921C60.8992 66.9921 62.1478 66.1162 63.3197 64.0626L94.4795 9.72666C95.3672 8.11097 95.604 6.3769 95.1069 5.09855C94.7104 4.07468 93.8994 3.34673 92.6981 2.93837C92.0589 2.72532 91.3428 2.63062 90.3663 2.63062H27.9164Z" fill="#02070C"/>
<path d="M85.5961 20.0657L83.4656 23.7764H71.5579L80.7195 28.5644L79.3228 30.9968L71.5579 26.7178V44.5497L67.8472 51.0184V20.0657H85.5961Z" fill="white"/>
<path d="M32.6802 20.0657L34.8108 23.7764H46.7243L37.5569 28.5644L38.9536 30.9968L46.7243 26.7178V44.5497L50.4351 51.0184V20.0657H32.6802Z" fill="white"/>
<path d="M67.3797 13.6444V6.87976H66.1842C65.7343 6.87976 65.5746 7.09874 65.2905 7.5071L63.4381 10.123L61.3844 6.87976H60.0942C59.6623 6.87976 59.603 7.27037 59.603 7.50118V13.6444H61.0826V9.19382L63.083 12.1885H63.7103L65.8054 9.20565V13.6444H67.3797Z" fill="white"/>
<path d="M70.641 11.5611C70.8776 11.5611 71.718 11.5375 72.5052 11.1883C73.5172 10.7444 74.0322 9.96319 74.0322 8.87423C74.0322 8.27648 73.7894 6.87976 71.5583 6.87976H69.2383C68.8062 6.87976 68.7412 7.27037 68.7412 7.50118V13.6444H70.5404V11.5611H70.641ZM70.5409 10.4367V8.00424H71.1564C72.2868 8.00424 72.4585 8.673 72.4585 9.06953C72.4585 10.3775 70.9433 10.4426 70.6415 10.4426C70.6052 10.4426 70.5886 10.4365 70.5886 10.4365L70.5409 10.4367Z" fill="white"/>
<path d="M58.2357 6.87976H56.9337C56.5017 6.87976 56.4365 7.27037 56.4365 7.50118V11.1469C56.4365 12.366 55.7796 12.6264 55.2292 12.6264C54.6788 12.6264 54.016 12.366 54.016 11.1469V6.87976H52.708C52.282 6.87976 52.2168 7.27037 52.2168 7.50118V11.283C52.2168 12.4725 52.7377 13.8929 55.2292 13.8929C57.7149 13.8929 58.2357 12.4725 58.2357 11.283V6.87976Z" fill="white"/>
<path d="M49.0566 13.6503H50.8499V6.87976H49.5479C49.1218 6.87976 49.0566 7.27037 49.0566 7.50118V13.6503Z" fill="white"/>
<path d="M81.4471 13.6444V6.87976H80.1451C79.7131 6.87976 79.6479 7.27037 79.6479 7.50118V8.63158L79.6131 8.63768C78.7845 8.79748 77.9441 9.11707 77.0444 9.6142L76.9793 9.65563V6.88004H75.6714C75.2452 6.88004 75.1802 7.27056 75.1802 7.50137V10.8571L75.1618 10.8692C74.8837 11.0764 74.6232 11.2835 74.3984 11.4611L74.3394 11.5083C69.6817 15.1659 65.0359 16.817 59.2832 16.8526C59.2241 16.8526 59.1651 16.8526 59.1057 16.8526C56.4543 16.8586 53.9094 16.4146 51.7492 15.5801C49.234 14.6095 47.3342 13.1655 46.0973 11.2775L46.0669 11.2303L46.12 11.2125C47.1616 10.7686 47.6943 9.98151 47.6943 8.87478C47.6943 8.27704 47.4517 6.88032 45.2204 6.88032H42.9005C42.4684 6.88032 42.4033 7.27093 42.4033 7.50174V13.6449H44.2262V11.5617H44.2731C44.2731 11.5617 44.3094 11.5617 44.3791 11.5617H44.4033L44.4185 11.5738C46.7858 14.4146 51.2896 17.7999 59.2853 17.7999C65.2686 17.7999 70.1513 16.1309 75.1108 12.3787L75.182 12.3255V13.6453H76.9812V11.0176L76.9995 10.9998C77.9641 10.3784 78.7867 10.0351 79.5974 9.91086L79.6505 9.90484V13.6452L81.4471 13.6444ZM44.3216 10.4367C44.2867 10.4367 44.2685 10.4367 44.2685 10.4367H44.2276V8.00424H44.8195C45.9499 8.00424 46.1215 8.673 46.1215 9.06953C46.1215 10.3716 44.6234 10.4367 44.3216 10.4367Z" fill="white"/>
<path d="M41.5877 6.87976H35.9594C35.5627 6.87976 35.48 7.2171 35.48 7.50118V8.48954H37.6224V13.6503H39.4334V8.48954H41.0964C41.5225 8.48954 41.5877 8.09892 41.5877 7.86812V6.87976Z" fill="white"/>
</g>
<defs>
<clipPath id="clip0_193_875">
<rect width="117.386" height="90.2537" fill="white" transform="translate(0.150391 0.573853)"/>
</clipPath>
</defs>
</svg>
