<svg width="229" height="52" viewBox="0 0 229 52" fill="none" xmlns="http://www.w3.org/2000/svg">
<path d="M26.1545 1.17175C12.6584 1.17175 1.70605 12.1602 1.70605 25.7008C1.70605 39.2415 12.6591 50.2307 26.1545 50.2307C39.6513 50.2307 50.6029 39.2415 50.6029 25.7008C50.6029 12.1602 39.6513 1.17175 26.1545 1.17175Z" fill="url(#paint0_radial_193_817)"/>
<path opacity="0.66" d="M26.2371 2.75952C13.3154 2.75952 2.83008 13.2795 2.83008 26.2437C2.83008 39.208 13.3154 49.7356 26.2371 49.7356C39.1587 49.7356 49.6516 39.2088 49.6516 26.2437C49.6516 13.2787 39.1587 2.75952 26.2371 2.75952ZM26.2439 3.30549C26.3801 3.30549 26.5201 3.34802 26.6299 3.42699C26.751 3.51279 26.8388 3.63353 26.888 3.77097V3.77856L26.8948 3.7854L27.6751 6.62762C37.8259 7.36646 45.8455 15.8719 45.8455 26.2437C45.8455 29.3054 45.1454 32.2076 43.8996 34.7924L45.9098 36.8237L45.9166 36.8313L45.9242 36.8381C46.0241 36.9543 46.0763 37.0895 46.0884 37.2261C46.1013 37.3643 46.0748 37.5101 46.0021 37.6347C45.9333 37.7546 45.8288 37.8534 45.6948 37.9149C45.5624 37.9756 45.4178 37.9908 45.2793 37.9642H45.265H45.2582L42.4972 37.2398C38.971 42.474 32.9995 45.9176 26.2371 45.9176C19.4746 45.9176 13.5077 42.474 9.98381 37.2398L7.2304 37.9726H7.22283H7.20844C7.05404 38.0007 6.91251 37.9695 6.79368 37.9149C6.66123 37.8541 6.55605 37.7554 6.48642 37.6347C6.41906 37.5177 6.38651 37.3712 6.40089 37.2337C6.41376 37.0963 6.46523 36.9626 6.56514 36.8449L6.57193 36.8381L6.5795 36.8313L8.58212 34.8C7.33483 32.2122 6.63704 29.3092 6.63704 26.2437C6.63704 15.8681 14.6573 7.35963 24.8142 6.62762L25.5801 3.79299L25.587 3.77856V3.77097C25.6354 3.63353 25.7239 3.51279 25.845 3.42699C25.9684 3.3389 26.1077 3.30549 26.2439 3.30549ZM26.2439 3.59176C26.1614 3.59176 26.0759 3.6153 26.0078 3.6639C25.9404 3.71174 25.8852 3.78616 25.8579 3.86513L24.155 10.1813C24.1119 10.3036 24.0937 10.4524 24.133 10.5762C24.1739 10.6992 24.2488 10.7972 24.3556 10.8708C24.6613 11.0819 24.7764 11.4806 24.9202 11.8679C25.064 12.2551 25.0874 12.5877 24.9845 12.9879C24.8816 13.3881 24.653 13.7525 24.3404 14.0213C23.7788 14.5043 23.274 15.0867 22.9599 15.7724C22.6458 16.4581 22.5384 17.1916 22.5384 17.9327V19.7552L13.7393 14.66L12.766 16.3389L22.5384 21.9945V24.047L20.7787 25.0668L11.0063 19.4036L10.033 21.0977L18.8321 26.1936L17.2579 27.1056C16.6183 27.4754 16.0469 27.9394 15.6125 28.5552C15.178 29.171 14.9184 29.9007 14.783 30.629C14.7065 31.0352 14.512 31.4164 14.2176 31.7057C13.9239 31.995 13.622 32.1325 13.2155 32.2C12.8099 32.2676 12.414 32.3815 12.0787 32.2221C11.9622 32.1674 11.8335 32.1514 11.7071 32.1788C11.5807 32.2046 11.4551 32.2745 11.3704 32.3724L6.78537 37.031C6.73088 37.0933 6.69228 37.1775 6.68547 37.2603C6.67715 37.3438 6.69378 37.4175 6.73541 37.4904C6.77704 37.5625 6.83836 37.6278 6.91404 37.6628C6.98973 37.6969 7.07524 37.7076 7.15698 37.6916L13.4668 36.0119C13.5932 35.9892 13.7234 35.9292 13.8097 35.8327C13.8959 35.7363 13.9497 35.6171 13.9603 35.488C13.9898 35.1159 14.2774 34.8236 14.54 34.5046C14.8026 34.1872 15.0804 33.9982 15.477 33.8873C15.8736 33.7772 16.2974 33.8015 16.6864 33.9382C17.3835 34.1842 18.1411 34.3239 18.8896 34.2541C19.6389 34.1842 20.3246 33.9139 20.9641 33.5433L22.5384 32.6306V42.8233H24.4774V31.5121L26.2439 30.4854L28.0043 31.5045V42.8233H29.9494V32.6306L31.5237 33.5433C32.1639 33.9131 32.8496 34.1842 33.5982 34.2541C34.3474 34.3232 35.1043 34.1758 35.8014 33.9298C36.1904 33.7931 36.621 33.7772 37.0176 33.8865C37.4134 33.9974 37.6783 34.1872 37.9402 34.5039C38.2013 34.8228 38.4972 35.1091 38.526 35.4796C38.5373 35.6087 38.5903 35.7272 38.6766 35.8244C38.7629 35.9216 38.8855 36.0013 39.0126 36.0256L45.3293 37.684C45.4103 37.7 45.4973 37.6901 45.5723 37.6559C45.6487 37.621 45.7092 37.5625 45.7509 37.4904C45.7925 37.4175 45.8091 37.3362 45.8008 37.2535C45.7925 37.1699 45.7614 37.0864 45.707 37.0226L41.1068 32.3792C41.0236 32.282 40.904 32.1985 40.7776 32.1719C40.6512 32.1454 40.5226 32.1583 40.406 32.2152C40.07 32.3747 39.6749 32.2684 39.2692 32.2C38.8628 32.1317 38.5608 31.9882 38.2672 31.6989C37.9727 31.408 37.7782 31.0268 37.7018 30.6221C37.5663 29.8916 37.3143 29.1627 36.8799 28.5476C36.4447 27.931 35.8604 27.4754 35.2201 27.1056L33.6534 26.1936L42.4525 21.0977L41.48 19.4112L31.7083 25.0744L29.9479 24.0553V22.0021L39.7203 16.3465L38.747 14.66L29.9479 19.7552V17.9327C29.9479 17.1909 29.8336 16.4581 29.5195 15.7724C29.2047 15.0867 28.6999 14.5043 28.1383 14.0213C27.8257 13.7525 27.5979 13.3881 27.495 12.9879C27.392 12.5885 27.4223 12.2551 27.5661 11.8679C27.7107 11.4813 27.8106 11.0812 28.1171 10.8708C28.223 10.7964 28.3063 10.6992 28.3457 10.5762C28.3858 10.4532 28.3888 10.3036 28.3457 10.1813L26.6148 3.86513C26.5875 3.78616 26.5391 3.7125 26.4717 3.6639C26.4058 3.6153 26.3279 3.59176 26.2439 3.59176ZM26.2439 15.8005C26.7056 15.8005 27.162 15.9903 27.4889 16.3176C27.8159 16.6456 28.0043 17.1035 28.0043 17.5667V20.8828L26.2439 21.9018L24.4774 20.8752V17.5667C24.4774 17.1035 24.6659 16.6464 24.9921 16.3176C25.319 15.9896 25.7822 15.8005 26.2439 15.8005ZM26.2515 24.148L28.0043 25.167V27.2195L26.2515 28.2393L24.4774 27.2119V25.1738L26.2515 24.148ZM20.7795 27.3205L22.5391 28.3395V30.392L19.6851 32.0429C19.2854 32.2745 18.7943 32.3352 18.347 32.216C17.9004 32.0952 17.5053 31.7908 17.2745 31.3906C17.0437 30.9896 16.9831 30.4961 17.1027 30.0481C17.2223 29.5993 17.5182 29.2097 17.9186 28.9789L20.7795 27.3205ZM31.7167 27.3205L34.5707 28.9713C34.9703 29.2029 35.2731 29.5925 35.3934 30.0405C35.5138 30.4885 35.4456 30.9889 35.2148 31.3898C34.9839 31.79 34.5874 32.0877 34.1416 32.2076C33.695 32.3269 33.2107 32.2661 32.811 32.0353L29.9494 30.3776V28.338L31.7167 27.3205Z" fill="black"/>
<path d="M26.1516 2.21436C13.23 2.21436 2.74463 12.7335 2.74463 25.6986C2.74463 38.6636 13.23 49.1904 26.1516 49.1904C39.074 49.1904 49.5654 38.6636 49.5654 25.6986C49.5654 12.7335 39.0733 2.21436 26.1516 2.21436ZM26.1584 2.75956C26.2939 2.75956 26.4347 2.80285 26.5444 2.88182C26.6655 2.96838 26.7533 3.08836 26.8017 3.22656V3.23339L26.8085 3.24099L27.5889 6.08321C37.7397 6.82205 45.7592 15.3275 45.7592 25.6986C45.7592 28.7595 45.0599 31.6609 43.8141 34.2465L45.8243 36.2785L45.8311 36.2853L45.8387 36.2929C45.9379 36.4091 45.9901 36.5435 46.0029 36.6802C46.0165 36.8192 45.9893 36.9642 45.9174 37.0887C45.8485 37.2087 45.7441 37.3082 45.6101 37.3689C45.4777 37.4304 45.3331 37.4456 45.1954 37.419H45.181H45.1734L42.4125 36.6946C38.8863 41.928 32.9148 45.3717 26.1524 45.3717C19.3892 45.3717 13.423 41.928 9.89834 36.6946L7.14493 37.4266H7.13735H7.12299C6.96859 37.4547 6.82706 37.4236 6.70823 37.3689C6.57654 37.3082 6.46982 37.2102 6.40095 37.0887C6.33359 36.9726 6.30104 36.826 6.31542 36.6878C6.32753 36.5511 6.37976 36.4167 6.47966 36.2998L6.48722 36.2929L6.49479 36.2853L8.49741 34.2541C7.24937 31.667 6.55157 28.7633 6.55157 25.6986C6.55157 15.3221 14.5726 6.81446 24.7295 6.08321L25.4947 3.24782L25.5015 3.23263V3.2258C25.5499 3.0876 25.6385 2.96762 25.7588 2.88106C25.8822 2.79297 26.0222 2.75956 26.1584 2.75956ZM26.1584 3.0466C26.0752 3.0466 25.9896 3.07013 25.9223 3.11797C25.8542 3.16657 25.7989 3.24022 25.7724 3.3192L24.0695 9.63542C24.0271 9.75767 24.0082 9.90043 24.0483 10.0234C24.0892 10.1465 24.1641 10.2513 24.2701 10.3241C24.5758 10.536 24.6909 10.9347 24.8355 11.3219C24.9793 11.7084 25.0027 12.0418 24.8998 12.442C24.7976 12.8421 24.5615 13.2059 24.2489 13.4747C23.6873 13.9576 23.1893 14.5408 22.8752 15.2257C22.5604 15.9114 22.4537 16.6449 22.4537 17.3868V19.21L13.6546 14.114L12.6813 15.7929L22.4537 21.4485V23.501L20.6932 24.5201L10.9208 18.8569L9.94754 20.5434L18.7466 25.6462L17.1731 26.5582C16.5329 26.9287 15.9554 27.3919 15.5202 28.0077C15.085 28.6236 14.833 29.3525 14.6975 30.0823C14.6218 30.4878 14.4265 30.8689 14.1321 31.159C13.8385 31.4476 13.5373 31.585 13.1308 31.6534C12.7252 31.7209 12.3286 31.8348 11.9933 31.6746C11.8767 31.6192 11.7473 31.604 11.6209 31.6321C11.4945 31.6571 11.3689 31.7262 11.2849 31.825L6.69234 36.4828C6.63785 36.5466 6.6068 36.6301 6.59848 36.7136C6.59015 36.7956 6.60757 36.8708 6.64843 36.9429C6.69006 37.0151 6.75212 37.0735 6.82704 37.1092C6.90349 37.1434 6.98903 37.1586 7.07077 37.1442L13.3798 35.4645C13.507 35.441 13.6371 35.3825 13.7234 35.2853C13.809 35.1881 13.8635 35.0696 13.874 34.9413C13.9036 34.5692 14.1912 34.2761 14.453 33.958C14.7157 33.6383 14.9934 33.4507 15.39 33.3406C15.7873 33.2297 16.2104 33.2548 16.5987 33.3915C17.2965 33.6368 18.0533 33.7772 18.8026 33.7059C19.5511 33.6368 20.2376 33.3672 20.8771 32.9966L22.4514 32.0839V42.2758H24.3897V30.9646L26.1569 29.9388L27.9166 30.9578V42.2758H29.8624V32.0839L31.4291 32.9966C32.0694 33.3664 32.7619 33.6368 33.5104 33.7059C34.2597 33.7765 35.0165 33.6292 35.7144 33.3831C36.1026 33.2465 36.5333 33.2222 36.9299 33.3338C37.3257 33.4446 37.5906 33.6383 37.8532 33.958C38.1143 34.2761 38.4103 34.5624 38.439 34.9337C38.4496 35.0628 38.5033 35.1813 38.5896 35.2785C38.6752 35.3757 38.7993 35.4546 38.9257 35.4789L45.2423 37.1381C45.3241 37.1533 45.4103 37.1442 45.486 37.11C45.5625 37.0743 45.6238 37.0158 45.6646 36.9437C45.7055 36.8716 45.7221 36.7903 45.7146 36.7068C45.7063 36.6233 45.6752 36.5397 45.6215 36.4767L41.0214 31.8333C40.9374 31.7346 40.8178 31.6518 40.6921 31.626C40.5657 31.5994 40.4363 31.6123 40.3198 31.6685C39.9845 31.8288 39.5887 31.7225 39.183 31.6541C38.7766 31.585 38.4753 31.4407 38.1817 31.1522C37.8873 30.8621 37.6928 30.4809 37.6163 30.0762C37.4801 29.3457 37.228 28.616 36.7936 28.0017C36.3592 27.3851 35.7742 26.9295 35.1339 26.5589L33.5604 25.6469L42.3663 20.5442L41.393 18.8645L31.6213 24.5277L29.8609 23.5079V21.4554L39.6333 15.7998L38.6608 14.1133L29.8617 19.2092V17.386C29.8617 16.6442 29.7474 15.9106 29.4325 15.2249C29.1177 14.54 28.6129 13.9568 28.0521 13.4739C27.7387 13.2051 27.5109 12.8414 27.408 12.4412C27.3058 12.041 27.3353 11.7084 27.4791 11.3212C27.6237 10.9347 27.7243 10.5345 28.0309 10.3234C28.1368 10.2497 28.2193 10.1449 28.2594 10.0227C28.3003 9.89967 28.3026 9.75691 28.2594 9.63466L26.5285 3.31844C26.5005 3.23947 26.446 3.16581 26.3787 3.11721C26.3128 3.07013 26.2417 3.0466 26.1584 3.0466ZM26.1584 15.2553C26.6201 15.2553 27.0757 15.4444 27.4034 15.7724C27.7304 16.1005 27.9181 16.5584 27.9181 17.0216V20.3376L26.1584 21.3567L24.3912 20.33V17.0208C24.3912 16.5576 24.5796 16.1005 24.9066 15.7717C25.2336 15.4436 25.6968 15.2553 26.1584 15.2553ZM26.1584 23.6028L27.9181 24.6218V26.6751L26.166 27.6934L24.3919 26.6675V24.6287L26.1584 23.6028ZM20.6857 26.7685L22.4529 27.7951V29.8476L19.5981 31.4984C19.1985 31.73 18.7073 31.79 18.26 31.6708C17.8134 31.5508 17.4176 31.2463 17.1868 30.8454C16.9559 30.4452 16.8954 29.9509 17.015 29.5036C17.1345 29.0549 17.4305 28.6585 17.8308 28.4269L20.6857 26.7685ZM31.6244 26.7685L34.4852 28.4269C34.8856 28.6585 35.1884 29.0473 35.3079 29.4961C35.4283 29.9441 35.3526 30.4445 35.1218 30.8446C34.8909 31.2456 34.5019 31.5432 34.0554 31.6632C33.6096 31.7824 33.1176 31.7217 32.718 31.4901L29.8632 29.8393V27.7868L31.6244 26.7685Z" fill="url(#paint1_radial_193_817)"/>
<path d="M54.645 5.0918L63.6621 32.7167V46.2103H72.5588V32.7167L81.0673 5.0918H73.025L67.9723 23.0434L63.0649 5.0918H54.645Z" fill="#F30711"/>
<path d="M110.18 5.09143V46.2091H117.58V19.544L121.821 46.2091H127.408L131.641 19.544V46.2091H139.179V5.09143H127.88L124.657 24.6514L121.551 5.09143H110.18Z" fill="#F30711"/>
<path d="M173.505 5.09143V46.2091H181.753V28.8802H188.779V46.2091H196.831V5.09143H188.779V21.4492H181.753V5.09143H173.505Z" fill="#F30711"/>
<path d="M208.55 5.08398L201.422 46.2078H209.467L211.053 36.1624H217.217L218.771 46.2078H226.885L219.755 5.08398H208.55ZM214.202 14.102L216.3 28.9798H212.017L214.202 14.102Z" fill="#F30711"/>
<path d="M150.782 5.08398L143.654 46.2078H151.699L153.285 36.1624H159.45L161.003 46.2078H169.118L161.988 5.08398H150.782ZM156.434 14.102L158.532 28.9798H154.249L156.434 14.102Z" fill="#F30711"/>
<path d="M87.4898 5.08398L80.3618 46.2078H88.4063L89.9919 36.1624H96.1564L97.7095 46.2078H105.824L98.6957 5.08398H87.4898ZM93.1419 14.102L95.2399 28.9798H90.9561L93.1419 14.102Z" fill="#F30711"/>
<defs>
<radialGradient id="paint0_radial_193_817" cx="0" cy="0" r="1" gradientUnits="userSpaceOnUse" gradientTransform="translate(17.5425 14.1394) scale(32.9452 33.0539)">
<stop stop-color="#FD9196"/>
<stop offset="1" stop-color="#F30713"/>
</radialGradient>
<radialGradient id="paint1_radial_193_817" cx="0" cy="0" r="1" gradientUnits="userSpaceOnUse" gradientTransform="translate(1.95366 1.40519) rotate(45.0944) scale(57.5173 52.128)">
<stop offset="0.0476" stop-color="#E4EBEE"/>
<stop offset="0.2722" stop-color="#F5F8F9"/>
<stop offset="0.4667" stop-color="white"/>
<stop offset="0.7524" stop-color="#BFC1C3"/>
<stop offset="0.8667" stop-color="#DCE0E6"/>
<stop offset="0.9048" stop-color="#E2E6ED"/>
<stop offset="1" stop-color="#BCBEC0"/>
</radialGradient>
</defs>
</svg>
